<svg width="1001" height="396" viewBox="0 0 1001 396" fill="none" xmlns="http://www.w3.org/2000/svg">
<path d="M328.432 294.309V205.284L344.216 214.078V285.437L328.432 294.309ZM166.424 370.341L248.812 323.929V339.136L180 377.944L166.424 370.341ZM15.7011 269.679L100.852 317.749L86.9598 325.592L15.7011 285.437V269.679ZM31.1689 101.062V189.131L15.7011 180.337V109.69L31.1689 101.062ZM193.887 25.7372L111.11 73.7345V56.391L179.922 17.9776L193.887 25.7372ZM344.299 125.614L256.546 76.8217L270.671 68.5891L344.299 109.69V125.614ZM226.243 94.4043L240.684 86.0106L344.299 143.592V159.984L226.243 94.4043ZM194.441 112.86L210.381 103.593L344.299 177.962V196.1L194.441 112.86ZM296.869 187.702L312.809 196.573V303.181L296.869 312.131V187.702ZM264.513 169.802L281.168 179.074V320.997L264.513 330.425V169.802ZM248.812 287.812V305.873L150.407 361.313L134.39 352.285L248.812 287.812ZM180 291.217L248.89 252.408V269.757L118.367 343.252L102.899 334.542L180 291.217ZM15.7011 233.719L132.653 299.771L116.791 308.721L15.7011 251.618V233.719ZM95.4816 243.458V243.62L163.983 282.189L148.67 290.822L15.7011 215.663V198.398L95.4816 243.458ZM62.8147 206.952L46.87 197.919V92.2682L62.8147 83.3963V206.952ZM95.4816 225.403L78.5158 215.819V74.6024L95.4816 65.1017V225.403ZM111.11 107.236V91.8732L209.826 34.609L223.324 42.1347L111.11 107.236ZM111.11 161.252L179.922 122.839L248.729 161.252V234.431L179.839 273.239L111.027 234.353V161.252H111.11ZM111.11 142.958V125.453L239.264 51.1625L254.649 59.7953L111.11 142.958ZM180 0L0 100.428V294.626L180 396L360 294.626V100.428L180 0Z" fill="#EDBD4E"/>
<path d="M419.537 67.8623H467.828C491.005 67.8623 510.813 75.779 527.245 91.6123C543.672 107.435 551.891 127.269 551.891 151.112C551.891 175.102 543.703 195.008 527.328 210.841C510.964 226.664 491.13 234.571 467.828 234.571H419.537V67.8623ZM457.537 200.612H463.391C477.266 200.612 488.61 195.935 497.432 186.571C506.266 177.211 510.745 165.461 510.87 151.321C510.87 137.17 506.458 125.378 497.641 115.946C488.818 106.519 477.401 101.8 463.391 101.8H457.537V200.612Z" fill="#EDBD4E"/>
<path d="M643.243 67.8623L710.535 234.571H669.723L657.389 201.237H593.931L581.618 234.571H540.785L608.077 67.8623H643.243ZM644.452 167.883L625.868 119.383H625.473L606.868 167.883H644.452Z" fill="#EDBD4E"/>
<path d="M744.913 131.112V234.571H706.913V67.8623H744.913L811.184 171.321H811.601V67.8623H849.58V234.571H811.601L745.309 131.112H744.913Z" fill="#EDBD4E"/>
<path d="M413.463 308.106H410.963C410.573 308.106 410.38 307.929 410.38 307.564V297.106C410.38 296.72 410.573 296.522 410.963 296.522H413.776C414.135 296.522 414.318 296.72 414.318 297.106V298.043C414.318 298.616 414.656 299.371 415.338 300.314C416.031 301.246 416.719 302.012 417.401 302.606C418.094 303.205 419.01 303.72 420.151 304.147C421.302 304.58 422.552 304.793 423.901 304.793C426.193 304.793 427.984 304.325 429.276 303.377C430.578 302.418 431.234 301.085 431.234 299.377C431.234 298.392 430.864 297.554 430.13 296.856C429.406 296.147 428.463 295.585 427.297 295.168C426.13 294.752 424.838 294.371 423.422 294.022C422.005 293.663 420.588 293.252 419.172 292.793C417.755 292.325 416.463 291.767 415.297 291.127C414.14 290.491 413.198 289.595 412.463 288.439C411.724 287.288 411.359 285.939 411.359 284.397C411.359 281.887 412.302 279.809 414.193 278.168C416.094 276.533 418.64 275.71 421.838 275.71C425.864 275.71 428.818 276.892 430.693 279.252L430.609 276.46C430.609 276.116 430.802 275.939 431.193 275.939H433.693C434.052 275.939 434.234 276.116 434.234 276.46V286.231C434.234 286.58 434.052 286.752 433.693 286.752H430.88C430.515 286.752 430.338 286.58 430.338 286.231V284.96C430.338 283.741 429.651 282.502 428.276 281.252C426.901 280.002 424.885 279.377 422.234 279.377C420.276 279.377 418.692 279.851 417.484 280.793C416.276 281.726 415.672 282.929 415.672 284.397C415.672 285.439 416.036 286.335 416.776 287.085C417.526 287.825 418.495 288.418 419.693 288.877C420.885 289.325 422.198 289.731 423.63 290.106C425.057 290.47 426.489 290.877 427.922 291.335C429.349 291.783 430.661 292.314 431.859 292.939C433.052 293.564 434.015 294.429 434.755 295.522C435.505 296.606 435.88 297.892 435.88 299.377C435.88 302.002 434.943 304.168 433.068 305.877C431.193 307.575 428.385 308.418 424.651 308.418C421.911 308.418 419.651 307.871 417.859 306.772C416.067 305.663 414.765 304.47 413.963 303.189L414.005 307.564C414.005 307.929 413.823 308.106 413.463 308.106Z" fill="#EDBD4E"/>
<path d="M461.67 308.106H451.233C450.842 308.106 450.649 307.913 450.649 307.523V305.335C450.649 304.95 450.842 304.752 451.233 304.752H454.649V279.335H446.191V284.085C446.191 284.502 445.972 284.71 445.545 284.71H443.045C442.629 284.71 442.42 284.502 442.42 284.085V276.564C442.42 276.179 442.629 275.981 443.045 275.981H470.024C470.441 275.981 470.649 276.179 470.649 276.564V284.085C470.649 284.502 470.441 284.71 470.024 284.71H467.483C467.092 284.71 466.899 284.502 466.899 284.085V279.335H458.524V304.752H461.67C462.087 304.752 462.295 304.95 462.295 305.335V307.523C462.295 307.913 462.087 308.106 461.67 308.106Z" fill="#EDBD4E"/>
<path d="M509.42 308.106H499.295C498.93 308.106 498.753 307.929 498.753 307.564V305.293C498.753 304.934 498.93 304.752 499.295 304.752H502.44L499.524 297.002H487.045L484.128 304.752H487.253C487.612 304.752 487.795 304.934 487.795 305.293V307.564C487.795 307.929 487.612 308.106 487.253 308.106H477.19C476.826 308.106 476.649 307.929 476.649 307.564V305.293C476.649 304.934 476.826 304.752 477.19 304.752H480.19L489.815 279.335H487.399C487.008 279.335 486.815 279.158 486.815 278.793V276.523C486.815 276.163 487.008 275.981 487.399 275.981H493.482C494.201 275.981 494.743 276.137 495.107 276.439C495.482 276.731 495.805 277.221 496.086 277.898L506.378 304.752H509.42C509.763 304.752 509.94 304.934 509.94 305.293V307.564C509.94 307.929 509.763 308.106 509.42 308.106ZM498.315 293.918L493.357 280.627H493.211L488.211 293.918H498.315Z" fill="#EDBD4E"/>
<path d="M532.103 308.106H517.645C517.254 308.106 517.062 307.929 517.062 307.564V305.293C517.062 304.934 517.254 304.752 517.645 304.752H521.041V279.335H517.645C517.254 279.335 517.062 279.158 517.062 278.793V276.523C517.062 276.163 517.254 275.981 517.645 275.981H532.062C535.03 275.981 537.343 276.773 538.999 278.356C540.666 279.929 541.499 281.997 541.499 284.564C541.499 287.58 540.171 289.835 537.52 291.335C541.338 292.434 543.249 294.971 543.249 298.939C543.249 301.747 542.312 303.976 540.437 305.627C538.572 307.283 535.796 308.106 532.103 308.106ZM524.937 304.752H531.791C534.135 304.752 535.978 304.252 537.312 303.252C538.645 302.252 539.312 300.71 539.312 298.627C539.312 294.892 536.895 293.023 532.062 293.023H524.937V304.752ZM524.937 290.064H531.791C533.332 290.038 534.676 289.596 535.832 288.731C536.983 287.872 537.562 286.517 537.562 284.668C537.562 282.809 536.957 281.455 535.749 280.606C534.541 279.762 533.051 279.335 531.291 279.335H524.937V290.064Z" fill="#EDBD4E"/>
<path d="M574.836 308.106H550.357C549.966 308.106 549.773 307.929 549.773 307.564V305.293C549.773 304.934 549.966 304.752 550.357 304.752H553.753V279.335H550.357C549.966 279.335 549.773 279.158 549.773 278.793V276.523C549.773 276.163 549.966 275.981 550.357 275.981H561.044C561.43 275.981 561.628 276.179 561.628 276.564V278.752C561.628 279.142 561.43 279.335 561.044 279.335H557.648V304.752H571.878V300.356C571.878 300.012 572.07 299.835 572.461 299.835H574.878C575.237 299.835 575.419 300.012 575.419 300.356V307.523C575.419 307.913 575.221 308.106 574.836 308.106Z" fill="#EDBD4E"/>
<path d="M606.347 308.106H582.576C582.185 308.106 581.993 307.929 581.993 307.564V305.293C581.993 304.934 582.185 304.752 582.576 304.752H585.972V279.335H582.576C582.185 279.335 581.993 279.158 581.993 278.793V276.523C581.993 276.163 582.185 275.981 582.576 275.981H606.347C606.732 275.981 606.93 276.163 606.93 276.523V283.71C606.93 284.101 606.732 284.293 606.347 284.293H603.93C603.565 284.293 603.388 284.101 603.388 283.71V279.335H589.868V290.439H601.201C601.586 290.439 601.784 290.616 601.784 290.96V293.252C601.784 293.616 601.586 293.793 601.201 293.793H589.868V304.752H603.347V300.356C603.347 300.012 603.539 299.835 603.93 299.835H606.347C606.732 299.835 606.93 300.012 606.93 300.356V307.564C606.93 307.929 606.732 308.106 606.347 308.106Z" fill="#EDBD4E"/>
<path d="M642.862 308.106H630.008C629.643 308.106 629.466 307.929 629.466 307.564V305.293C629.466 304.934 629.643 304.752 630.008 304.752H633.466V279.335H630.008C629.643 279.335 629.466 279.158 629.466 278.793V276.523C629.466 276.163 629.643 275.981 630.008 275.981H642.091C647.049 275.981 650.987 277.408 653.903 280.252C656.831 283.101 658.299 287.017 658.299 292.002C658.299 296.976 656.909 300.908 654.133 303.793C651.351 306.668 647.596 308.106 642.862 308.106ZM637.341 304.752H641.778C650.07 304.7 654.216 300.476 654.216 292.085C654.216 288.059 653.143 284.929 651.008 282.689C648.883 280.455 645.763 279.335 641.653 279.335H637.341V304.752Z" fill="#EDBD4E"/>
<path d="M676.38 308.106H665.63C665.239 308.106 665.047 307.929 665.047 307.564V305.293C665.047 304.934 665.239 304.752 665.63 304.752H669.026V279.335H665.63C665.239 279.335 665.047 279.158 665.047 278.793V276.523C665.047 276.163 665.239 275.981 665.63 275.981H676.38C676.755 275.981 676.943 276.163 676.943 276.523V278.793C676.943 279.158 676.755 279.335 676.38 279.335H672.922V304.752H676.38C676.755 304.752 676.943 304.934 676.943 305.293V307.564C676.943 307.929 676.755 308.106 676.38 308.106Z" fill="#EDBD4E"/>
<path d="M696.421 308.106H684.067C683.676 308.106 683.484 307.929 683.484 307.564V305.293C683.484 304.934 683.676 304.752 684.067 304.752H687.463V279.335H684.067C683.676 279.335 683.484 279.158 683.484 278.793V276.523C683.484 276.163 683.676 275.981 684.067 275.981H707.025C707.411 275.981 707.609 276.163 707.609 276.523V283.71C707.609 284.101 707.411 284.293 707.025 284.293H704.609C704.244 284.293 704.067 284.101 704.067 283.71V279.335H691.359V290.439H701.879C702.265 290.439 702.463 290.616 702.463 290.96V293.252C702.463 293.616 702.265 293.793 701.879 293.793H691.359V304.752H696.421C696.78 304.752 696.963 304.934 696.963 305.293V307.564C696.963 307.929 696.78 308.106 696.421 308.106Z" fill="#EDBD4E"/>
<path d="M727.074 308.106H714.72C714.329 308.106 714.136 307.929 714.136 307.564V305.293C714.136 304.934 714.329 304.752 714.72 304.752H718.116V279.335H714.72C714.329 279.335 714.136 279.158 714.136 278.793V276.523C714.136 276.163 714.329 275.981 714.72 275.981H737.678C738.063 275.981 738.261 276.163 738.261 276.523V283.71C738.261 284.101 738.063 284.293 737.678 284.293H735.261C734.897 284.293 734.72 284.101 734.72 283.71V279.335H722.011V290.439H732.532C732.918 290.439 733.116 290.616 733.116 290.96V293.252C733.116 293.616 732.918 293.793 732.532 293.793H722.011V304.752H727.074C727.433 304.752 727.616 304.934 727.616 305.293V307.564C727.616 307.929 727.433 308.106 727.074 308.106Z" fill="#EDBD4E"/>
<path d="M769.04 296.481V279.335H765.602C765.237 279.335 765.06 279.158 765.06 278.793V276.523C765.06 276.163 765.237 275.981 765.602 275.981H776.394C776.737 275.981 776.915 276.163 776.915 276.523V278.793C776.915 279.158 776.737 279.335 776.394 279.335H772.935V296.064C772.935 300.096 771.878 303.163 769.769 305.273C767.67 307.372 764.706 308.418 760.873 308.418C757.04 308.418 754.06 307.372 751.935 305.273C749.821 303.163 748.769 300.096 748.769 296.064V279.335H745.373C744.982 279.335 744.79 279.158 744.79 278.793V276.523C744.79 276.163 744.982 275.981 745.373 275.981H756.123C756.498 275.981 756.685 276.163 756.685 276.523V278.793C756.685 279.158 756.498 279.335 756.123 279.335H752.665V296.21C752.665 301.934 755.404 304.793 760.894 304.793C763.696 304.793 765.753 304.059 767.06 302.585C768.378 301.101 769.04 299.064 769.04 296.481Z" fill="#EDBD4E"/>
<path d="M786.536 308.106H784.036C783.645 308.106 783.453 307.929 783.453 307.564V297.106C783.453 296.72 783.645 296.522 784.036 296.522H786.849C787.208 296.522 787.39 296.72 787.39 297.106V298.043C787.39 298.616 787.729 299.371 788.411 300.314C789.104 301.246 789.791 302.012 790.474 302.606C791.166 303.205 792.083 303.72 793.224 304.147C794.375 304.58 795.625 304.793 796.974 304.793C799.265 304.793 801.057 304.325 802.349 303.377C803.651 302.418 804.307 301.085 804.307 299.377C804.307 298.392 803.937 297.554 803.203 296.856C802.479 296.147 801.536 295.585 800.369 295.168C799.203 294.752 797.911 294.371 796.494 294.022C795.078 293.663 793.661 293.252 792.244 292.793C790.828 292.325 789.536 291.767 788.369 291.127C787.213 290.491 786.27 289.595 785.536 288.439C784.796 287.288 784.432 285.939 784.432 284.397C784.432 281.887 785.375 279.809 787.265 278.168C789.166 276.533 791.713 275.71 794.911 275.71C798.937 275.71 801.89 276.892 803.765 279.252L803.682 276.46C803.682 276.116 803.875 275.939 804.265 275.939H806.765C807.125 275.939 807.307 276.116 807.307 276.46V286.231C807.307 286.58 807.125 286.752 806.765 286.752H803.953C803.588 286.752 803.411 286.58 803.411 286.231V284.96C803.411 283.741 802.724 282.502 801.349 281.252C799.974 280.002 797.958 279.377 795.307 279.377C793.349 279.377 791.765 279.851 790.557 280.793C789.349 281.726 788.744 282.929 788.744 284.397C788.744 285.439 789.109 286.335 789.849 287.085C790.599 287.825 791.567 288.418 792.765 288.877C793.958 289.325 795.27 289.731 796.703 290.106C798.13 290.47 799.562 290.877 800.994 291.335C802.422 291.783 803.734 292.314 804.932 292.939C806.125 293.564 807.088 294.429 807.828 295.522C808.578 296.606 808.953 297.892 808.953 299.377C808.953 302.002 808.015 304.168 806.14 305.877C804.265 307.575 801.458 308.418 797.724 308.418C794.984 308.418 792.724 307.871 790.932 306.772C789.14 305.663 787.838 304.47 787.036 303.189L787.078 307.564C787.078 307.929 786.895 308.106 786.536 308.106Z" fill="#EDBD4E"/>
<path d="M826.826 308.106H816.076C815.686 308.106 815.493 307.929 815.493 307.564V305.293C815.493 304.934 815.686 304.752 816.076 304.752H819.472V279.335H816.076C815.686 279.335 815.493 279.158 815.493 278.793V276.523C815.493 276.163 815.686 275.981 816.076 275.981H826.826C827.201 275.981 827.389 276.163 827.389 276.523V278.793C827.389 279.158 827.201 279.335 826.826 279.335H823.368V304.752H826.826C827.201 304.752 827.389 304.934 827.389 305.293V307.564C827.389 307.929 827.201 308.106 826.826 308.106Z" fill="#EDBD4E"/>
<path d="M865.076 291.897C865.076 296.804 863.602 300.783 860.659 303.835C857.727 306.892 854.034 308.418 849.576 308.418C845.117 308.418 841.393 306.877 838.409 303.793C835.419 300.7 833.93 296.71 833.93 291.835C833.93 286.96 835.461 283.059 838.534 280.127C841.617 277.184 845.289 275.71 849.555 275.71C853.815 275.71 857.471 277.184 860.513 280.127C863.555 283.059 865.076 286.981 865.076 291.897ZM841.555 301.377C843.846 303.658 846.513 304.793 849.555 304.793C852.596 304.793 855.247 303.658 857.513 301.377C859.773 299.085 860.909 295.955 860.909 291.981C860.909 287.996 859.747 284.877 857.43 282.627C855.122 280.377 852.492 279.252 849.534 279.252C846.586 279.252 843.951 280.377 841.617 282.627C839.294 284.877 838.138 287.996 838.138 291.981C838.138 295.955 839.273 299.085 841.555 301.377Z" fill="#EDBD4E"/>
<path d="M899.486 308.106H897.07C896.497 308.106 896.049 307.997 895.716 307.773C895.393 307.554 895.091 307.2 894.799 306.71L881.861 286.502L879.611 282.731H879.528V304.752H882.986C883.361 304.752 883.549 304.934 883.549 305.293V307.564C883.549 307.929 883.361 308.106 882.986 308.106H872.236C871.846 308.106 871.653 307.929 871.653 307.564V305.293C871.653 304.934 871.846 304.752 872.236 304.752H875.632V279.335H872.236C871.846 279.335 871.653 279.158 871.653 278.793V276.523C871.653 276.163 871.846 275.981 872.236 275.981H878.507C879.367 275.981 880.122 276.491 880.778 277.502L893.528 297.46L896.091 301.793H896.174V279.335H892.736C892.372 279.335 892.195 279.158 892.195 278.793V276.523C892.195 276.163 892.372 275.981 892.736 275.981H903.507C903.867 275.981 904.049 276.163 904.049 276.523V278.793C904.049 279.158 903.867 279.335 903.507 279.335H900.07V307.564C900.07 307.929 899.872 308.106 899.486 308.106Z" fill="#EDBD4E"/>
<path d="M439.422 357.743C439.573 357.868 439.651 358.013 439.651 358.18C439.651 358.336 439.578 358.555 439.443 358.847C439.318 359.128 439.094 359.503 438.776 359.972C438.453 360.43 437.89 361.066 437.088 361.868C436.281 362.675 435.401 363.368 434.443 363.951C433.495 364.534 432.239 365.05 430.672 365.493C429.099 365.935 427.427 366.159 425.651 366.159C421.286 366.159 417.651 364.638 414.734 361.597C411.828 358.555 410.38 354.571 410.38 349.638C410.38 344.696 411.844 340.763 414.776 337.847C417.719 334.92 421.265 333.451 425.422 333.451C430.047 333.451 433.401 335.05 435.484 338.243L435.443 334.263C435.385 333.904 435.567 333.722 435.984 333.722H438.484C438.87 333.722 439.068 333.904 439.068 334.263V344.013C439.068 344.404 438.87 344.597 438.484 344.597H435.672C435.307 344.597 435.13 344.404 435.13 344.013V343.597C435.13 342.237 434.193 340.821 432.318 339.347C430.453 337.862 428.135 337.118 425.359 337.118C422.594 337.118 420.099 338.217 417.88 340.409C415.656 342.607 414.547 345.711 414.547 349.722C414.547 353.737 415.661 356.857 417.901 359.076C420.135 361.3 422.76 362.409 425.776 362.409C429.026 362.409 431.588 361.675 433.463 360.201C434.932 359.076 436.01 357.93 436.693 356.763C436.927 356.321 437.213 356.232 437.547 356.493L439.422 357.743Z" fill="#EDBD4E"/>
<path d="M477.415 349.638C477.415 354.545 475.941 358.524 472.998 361.576C470.066 364.633 466.373 366.159 461.915 366.159C457.456 366.159 453.732 364.618 450.748 361.534C447.758 358.441 446.269 354.451 446.269 349.576C446.269 344.701 447.8 340.8 450.873 337.868C453.956 334.925 457.628 333.451 461.894 333.451C466.154 333.451 469.81 334.925 472.852 337.868C475.894 340.8 477.415 344.722 477.415 349.638ZM453.894 359.118C456.185 361.399 458.852 362.534 461.894 362.534C464.935 362.534 467.586 361.399 469.852 359.118C472.112 356.826 473.248 353.696 473.248 349.722C473.248 345.737 472.086 342.618 469.769 340.368C467.461 338.118 464.831 336.993 461.873 336.993C458.925 336.993 456.29 338.118 453.956 340.368C451.633 342.618 450.477 345.737 450.477 349.722C450.477 353.696 451.612 356.826 453.894 359.118Z" fill="#EDBD4E"/>
<path d="M520.284 365.847H509.951C509.586 365.847 509.409 365.67 509.409 365.305V363.034C509.409 362.675 509.586 362.493 509.951 362.493H512.951V340.201H512.909L504.409 361.326C504.044 362.216 503.388 362.659 502.43 362.659C501.471 362.659 500.815 362.216 500.471 361.326L491.951 340.201H491.867V362.493H494.867C495.253 362.493 495.451 362.675 495.451 363.034V365.305C495.451 365.67 495.253 365.847 494.867 365.847H484.576C484.185 365.847 483.992 365.67 483.992 365.305V363.034C483.992 362.675 484.185 362.493 484.576 362.493H487.971V337.076H484.576C484.185 337.076 483.992 336.899 483.992 336.534V334.263C483.992 333.904 484.185 333.722 484.576 333.722H491.471C492.482 333.722 493.185 334.232 493.576 335.243L500.242 351.347L502.346 356.993H502.513C503.357 354.659 504.044 352.805 504.576 351.43L511.284 335.243C511.669 334.232 512.388 333.722 513.43 333.722H520.284C520.643 333.722 520.826 333.904 520.826 334.263V336.534C520.826 336.899 520.643 337.076 520.284 337.076H516.846V362.493H520.284C520.643 362.493 520.826 362.675 520.826 363.034V365.305C520.826 365.67 520.643 365.847 520.284 365.847Z" fill="#EDBD4E"/>
<path d="M539.625 365.847H527.937C527.547 365.847 527.354 365.67 527.354 365.305V363.034C527.354 362.675 527.547 362.493 527.937 362.493H531.333V337.076H527.937C527.547 337.076 527.354 336.899 527.354 336.534V334.263C527.354 333.904 527.547 333.722 527.937 333.722H541.729C544.88 333.722 547.463 334.638 549.479 336.472C551.489 338.305 552.5 340.784 552.5 343.909C552.5 347.024 551.51 349.44 549.541 351.159C547.583 352.868 544.812 353.722 541.229 353.722H535.229V362.493H539.625C539.968 362.493 540.146 362.675 540.146 363.034V365.305C540.146 365.67 539.968 365.847 539.625 365.847ZM535.229 350.534H541.041C546.052 350.534 548.562 348.326 548.562 343.909C548.562 341.618 547.854 339.909 546.437 338.784C545.021 337.649 543.239 337.076 541.104 337.076H535.229V350.534Z" fill="#EDBD4E"/>
<path d="M583.286 354.222V337.076H579.849C579.484 337.076 579.307 336.899 579.307 336.534V334.263C579.307 333.904 579.484 333.722 579.849 333.722H590.64C590.984 333.722 591.161 333.904 591.161 334.263V336.534C591.161 336.899 590.984 337.076 590.64 337.076H587.182V353.805C587.182 357.836 586.125 360.904 584.015 363.013C581.916 365.112 578.953 366.159 575.12 366.159C571.286 366.159 568.307 365.112 566.182 363.013C564.067 360.904 563.015 357.836 563.015 353.805V337.076H559.62C559.229 337.076 559.036 336.899 559.036 336.534V334.263C559.036 333.904 559.229 333.722 559.62 333.722H570.37C570.745 333.722 570.932 333.904 570.932 334.263V336.534C570.932 336.899 570.745 337.076 570.37 337.076H566.911V353.951C566.911 359.675 569.651 362.534 575.14 362.534C577.943 362.534 580 361.8 581.307 360.326C582.625 358.841 583.286 356.805 583.286 354.222Z" fill="#EDBD4E"/>
<path d="M616.95 365.847H606.512C606.121 365.847 605.929 365.654 605.929 365.263V363.076C605.929 362.69 606.121 362.493 606.512 362.493H609.929V337.076H601.47V341.826C601.47 342.243 601.252 342.451 600.825 342.451H598.325C597.908 342.451 597.7 342.243 597.7 341.826V334.305C597.7 333.92 597.908 333.722 598.325 333.722H625.304C625.72 333.722 625.929 333.92 625.929 334.305V341.826C625.929 342.243 625.72 342.451 625.304 342.451H622.762C622.371 342.451 622.179 342.243 622.179 341.826V337.076H613.804V362.493H616.95C617.366 362.493 617.575 362.69 617.575 363.076V365.263C617.575 365.654 617.366 365.847 616.95 365.847Z" fill="#EDBD4E"/>
<path d="M643.803 365.847H633.053C632.662 365.847 632.47 365.67 632.47 365.305V363.034C632.47 362.675 632.662 362.493 633.053 362.493H636.449V337.076H633.053C632.662 337.076 632.47 336.899 632.47 336.534V334.263C632.47 333.904 632.662 333.722 633.053 333.722H643.803C644.178 333.722 644.365 333.904 644.365 334.263V336.534C644.365 336.899 644.178 337.076 643.803 337.076H640.345V362.493H643.803C644.178 362.493 644.365 362.675 644.365 363.034V365.305C644.365 365.67 644.178 365.847 643.803 365.847Z" fill="#EDBD4E"/>
<path d="M678.739 365.847H676.323C675.75 365.847 675.302 365.737 674.969 365.513C674.646 365.295 674.344 364.94 674.052 364.451L661.114 344.243L658.864 340.472H658.781V362.493H662.239C662.614 362.493 662.802 362.675 662.802 363.034V365.305C662.802 365.67 662.614 365.847 662.239 365.847H651.489C651.099 365.847 650.906 365.67 650.906 365.305V363.034C650.906 362.675 651.099 362.493 651.489 362.493H654.885V337.076H651.489C651.099 337.076 650.906 336.899 650.906 336.534V334.263C650.906 333.904 651.099 333.722 651.489 333.722H657.76C658.62 333.722 659.375 334.232 660.031 335.243L672.781 355.201L675.344 359.534H675.427V337.076H671.989C671.625 337.076 671.448 336.899 671.448 336.534V334.263C671.448 333.904 671.625 333.722 671.989 333.722H682.76C683.12 333.722 683.302 333.904 683.302 334.263V336.534C683.302 336.899 683.12 337.076 682.76 337.076H679.323V365.305C679.323 365.67 679.125 365.847 678.739 365.847Z" fill="#EDBD4E"/>
<path d="M718.567 365.847H716.192C715.801 365.847 715.609 365.67 715.609 365.305L715.65 362.222C713.025 364.847 709.525 366.159 705.15 366.159C700.786 366.159 697.14 364.638 694.213 361.597C691.296 358.555 689.838 354.555 689.838 349.597C689.838 346.295 690.572 343.388 692.046 340.888C693.53 338.378 695.411 336.508 697.692 335.284C699.968 334.066 702.442 333.451 705.109 333.451C709.661 333.451 712.942 334.868 714.942 337.701L714.9 334.263C714.843 333.904 715.025 333.722 715.442 333.722H717.942C718.327 333.722 718.525 333.904 718.525 334.263V343.472C718.525 343.836 718.327 344.013 717.942 344.013H715.129C714.765 344.013 714.588 343.836 714.588 343.472V342.93C714.588 341.628 713.682 340.336 711.879 339.055C710.072 337.763 707.765 337.118 704.963 337.118C702.155 337.118 699.629 338.279 697.379 340.597C695.129 342.904 694.004 345.987 694.004 349.847C694.004 353.711 695.135 356.774 697.4 359.034C699.661 361.284 702.197 362.409 705.004 362.409C707.807 362.409 710.025 361.967 711.65 361.076C713.275 360.175 714.489 359.112 715.296 357.888V354.388H706.984C706.619 354.388 706.442 354.196 706.442 353.805V351.743C706.442 351.399 706.619 351.222 706.984 351.222H718.567C718.926 351.222 719.109 351.399 719.109 351.743V365.305C719.109 365.67 718.926 365.847 718.567 365.847Z" fill="#EDBD4E"/>
<path d="M769.714 365.847H767.298C766.725 365.847 766.277 365.737 765.943 365.513C765.62 365.295 765.318 364.94 765.027 364.451L752.089 344.243L749.839 340.472H749.756V362.493H753.214C753.589 362.493 753.777 362.675 753.777 363.034V365.305C753.777 365.67 753.589 365.847 753.214 365.847H742.464C742.074 365.847 741.881 365.67 741.881 365.305V363.034C741.881 362.675 742.074 362.493 742.464 362.493H745.86V337.076H742.464C742.074 337.076 741.881 336.899 741.881 336.534V334.263C741.881 333.904 742.074 333.722 742.464 333.722H748.735C749.594 333.722 750.35 334.232 751.006 335.243L763.756 355.201L766.318 359.534H766.402V337.076H762.964C762.6 337.076 762.423 336.899 762.423 336.534V334.263C762.423 333.904 762.6 333.722 762.964 333.722H773.735C774.094 333.722 774.277 333.904 774.277 334.263V336.534C774.277 336.899 774.094 337.076 773.735 337.076H770.298V365.305C770.298 365.67 770.1 365.847 769.714 365.847Z" fill="#EDBD4E"/>
<path d="M805.167 365.847H781.396C781.005 365.847 780.813 365.67 780.813 365.305V363.034C780.813 362.675 781.005 362.493 781.396 362.493H784.792V337.076H781.396C781.005 337.076 780.813 336.899 780.813 336.534V334.263C780.813 333.904 781.005 333.722 781.396 333.722H805.167C805.552 333.722 805.75 333.904 805.75 334.263V341.451C805.75 341.841 805.552 342.034 805.167 342.034H802.75C802.386 342.034 802.208 341.841 802.208 341.451V337.076H788.688V348.18H800.021C800.406 348.18 800.604 348.357 800.604 348.701V350.993C800.604 351.357 800.406 351.534 800.021 351.534H788.688V362.493H802.167V358.097C802.167 357.753 802.359 357.576 802.75 357.576H805.167C805.552 357.576 805.75 357.753 805.75 358.097V365.305C805.75 365.67 805.552 365.847 805.167 365.847Z" fill="#EDBD4E"/>
<path d="M831.521 365.847H821.084C820.693 365.847 820.5 365.654 820.5 365.263V363.076C820.5 362.69 820.693 362.493 821.084 362.493H824.5V337.076H816.042V341.826C816.042 342.243 815.823 342.451 815.396 342.451H812.896C812.48 342.451 812.271 342.243 812.271 341.826V334.305C812.271 333.92 812.48 333.722 812.896 333.722H839.875C840.292 333.722 840.5 333.92 840.5 334.305V341.826C840.5 342.243 840.292 342.451 839.875 342.451H837.334C836.943 342.451 836.75 342.243 836.75 341.826V337.076H828.375V362.493H831.521C831.938 362.493 832.146 362.69 832.146 363.076V365.263C832.146 365.654 831.938 365.847 831.521 365.847Z" fill="#EDBD4E"/>
<path d="M878.374 365.847H876.666C875.567 365.847 874.864 365.253 874.562 364.055L869.374 341.326H869.249L864.145 364.055C863.838 365.253 863.124 365.847 861.999 365.847H860.333C859.291 365.847 858.572 365.253 858.187 364.055L849.999 337.076H847.187C846.796 337.076 846.604 336.899 846.604 336.534V334.263C846.604 333.904 846.796 333.722 847.187 333.722H857.249C857.635 333.722 857.833 333.904 857.833 334.263V336.534C857.833 336.899 857.635 337.076 857.249 337.076H854.104L861.041 361.097H861.312L867.541 333.722H871.124L877.374 361.097H877.645L884.583 337.076H881.416C881.052 337.076 880.874 336.899 880.874 336.534V334.263C880.874 333.904 881.052 333.722 881.416 333.722H891.52C891.88 333.722 892.062 333.904 892.062 334.263V336.534C892.062 336.899 891.88 337.076 891.52 337.076H888.666L880.479 364.055C880.114 365.253 879.416 365.847 878.374 365.847Z" fill="#EDBD4E"/>
<path d="M929.38 349.638C929.38 354.545 927.906 358.524 924.963 361.576C922.031 364.633 918.338 366.159 913.88 366.159C909.422 366.159 905.698 364.618 902.713 361.534C899.724 358.441 898.234 354.451 898.234 349.576C898.234 344.701 899.765 340.8 902.838 337.868C905.922 334.925 909.594 333.451 913.859 333.451C918.12 333.451 921.776 334.925 924.817 337.868C927.859 340.8 929.38 344.722 929.38 349.638ZM905.859 359.118C908.151 361.399 910.817 362.534 913.859 362.534C916.901 362.534 919.552 361.399 921.817 359.118C924.078 356.826 925.213 353.696 925.213 349.722C925.213 345.737 924.052 342.618 921.734 340.368C919.427 338.118 916.797 336.993 913.838 336.993C910.89 336.993 908.255 338.118 905.922 340.368C903.599 342.618 902.442 345.737 902.442 349.722C902.442 353.696 903.578 356.826 905.859 359.118Z" fill="#EDBD4E"/>
<path d="M963.124 365.847H959.228C958.155 365.847 957.26 365.133 956.541 363.701L952.333 355.159C951.968 354.409 951.588 353.857 951.187 353.493C950.78 353.133 950.228 352.94 949.52 352.909H943.833V362.493H947.853C948.213 362.493 948.395 362.675 948.395 363.034V365.305C948.395 365.67 948.213 365.847 947.853 365.847H936.541C936.15 365.847 935.958 365.67 935.958 365.305V363.034C935.958 362.675 936.15 362.493 936.541 362.493H939.937V337.076H936.541C936.15 337.076 935.958 336.899 935.958 336.534V334.263C935.958 333.904 936.15 333.722 936.541 333.722H950.333C953.51 333.722 956.103 334.565 958.103 336.243C960.103 337.925 961.103 340.305 961.103 343.388C961.103 348.071 958.916 350.993 954.541 352.159C955.093 352.607 955.791 353.607 956.624 355.159L960.395 362.493H963.124C963.484 362.493 963.666 362.675 963.666 363.034V365.305C963.666 365.67 963.484 365.847 963.124 365.847ZM943.833 349.743H949.562C954.629 349.743 957.166 347.67 957.166 343.513C957.166 339.222 954.629 337.076 949.562 337.076H943.833V349.743Z" fill="#EDBD4E"/>
<path d="M999.461 365.847H995.565C994.493 365.847 993.597 365.133 992.878 363.701L988.67 355.159C988.43 354.675 988.216 354.3 988.024 354.034C987.826 353.774 987.409 353.508 986.774 353.243C986.133 352.966 985.336 352.826 984.378 352.826H978.065V362.493H982.19C982.576 362.493 982.774 362.675 982.774 363.034V365.305C982.774 365.67 982.576 365.847 982.19 365.847H970.774C970.383 365.847 970.19 365.67 970.19 365.305V363.034C970.19 362.675 970.383 362.493 970.774 362.493H974.17V337.076H970.774C970.383 337.076 970.19 336.899 970.19 336.534V334.263C970.19 333.904 970.383 333.722 970.774 333.722H980.795C981.154 333.722 981.336 333.904 981.336 334.263V336.534C981.336 336.899 981.154 337.076 980.795 337.076H978.065V349.638H982.774C985.925 349.638 988.274 348.711 989.815 346.847C991.357 344.987 992.128 341.732 992.128 337.076H989.086C988.722 337.076 988.545 336.899 988.545 336.534V334.263C988.545 333.904 988.722 333.722 989.086 333.722H999.065C999.409 333.722 999.586 333.904 999.586 334.263V336.534C999.586 336.899 999.409 337.076 999.065 337.076H995.961C995.961 344.274 993.93 348.966 989.878 351.159C990.571 351.493 991.107 351.925 991.482 352.451C991.868 352.966 992.321 353.732 992.836 354.743L996.732 362.493H999.461C999.821 362.493 1000 362.675 1000 363.034V365.305C1000 365.67 999.821 365.847 999.461 365.847Z" fill="#EDBD4E"/>
</svg>
