<svg width="396" height="396" viewBox="0 0 396 396" fill="none" xmlns="http://www.w3.org/2000/svg">
<path d="M346.432 294.309V205.284L362.216 214.078V285.437L346.432 294.309ZM184.424 370.341L266.812 323.929V339.136L198 377.944L184.424 370.341ZM33.7011 269.679L118.852 317.749L104.96 325.592L33.7011 285.437V269.679ZM49.1689 101.062V189.131L33.7011 180.337V109.69L49.1689 101.062ZM211.887 25.7372L129.11 73.7345V56.391L197.922 17.9776L211.887 25.7372ZM362.299 125.614L274.546 76.8217L288.671 68.5891L362.299 109.69V125.614ZM244.243 94.4043L258.684 86.0106L362.299 143.592V159.984L244.243 94.4043ZM212.441 112.86L228.381 103.593L362.299 177.962V196.1L212.441 112.86ZM314.869 187.702L330.809 196.573V303.181L314.869 312.131V187.702ZM282.513 169.802L299.168 179.074V320.997L282.513 330.425V169.802ZM266.812 287.812V305.873L168.407 361.313L152.39 352.285L266.812 287.812ZM198 291.217L266.89 252.408V269.757L136.367 343.252L120.899 334.542L198 291.217ZM33.7011 233.719L150.653 299.771L134.791 308.721L33.7011 251.618V233.719ZM113.482 243.458V243.62L181.983 282.189L166.67 290.822L33.7011 215.663V198.398L113.482 243.458ZM80.8147 206.952L64.87 197.919V92.2682L80.8147 83.3963V206.952ZM113.482 225.403L96.5158 215.819V74.6024L113.482 65.1017V225.403ZM129.11 107.236V91.8732L227.826 34.609L241.324 42.1347L129.11 107.236ZM129.11 161.252L197.922 122.839L266.729 161.252V234.431L197.839 273.239L129.027 234.353V161.252H129.11ZM129.11 142.958V125.453L257.264 51.1625L272.649 59.7953L129.11 142.958ZM198 0L18 100.428V294.626L198 396L378 294.626V100.428L198 0Z" fill="#EDBD4E"/>
</svg>
