<?xml version="1.0" standalone="no"?><!DOCTYPE svg PUBLIC "-//W3C//DTD SVG 1.1//EN" "http://www.w3.org/Graphics/SVG/1.1/DTD/svg11.dtd"><svg t="1681794471226" class="icon" viewBox="0 0 1024 1024" version="1.1" xmlns="http://www.w3.org/2000/svg" p-id="4808" xmlns:xlink="http://www.w3.org/1999/xlink" width="200" height="200"><path d="M361.411765 481.882353H0V120.470588h60.235294v247.506824C121.253647 175.646118 303.344941 37.647059 512 37.647059c211.184941 0 398.817882 142.155294 456.222118 345.690353l-58.006589 16.323764A415.503059 415.503059 0 0 0 512 97.822118C317.680941 97.882353 149.624471 234.917647 107.941647 421.647059H361.411765v60.235294z m301.17647 60.235294v60.235294h253.470118c-41.743059 186.789647-209.558588 323.764706-404.058353 323.764706a415.322353 415.322353 0 0 1-398.215529-301.839059l-58.006589 16.323765A475.858824 475.858824 0 0 0 512 986.292706c208.353882 0 390.023529-137.336471 451.764706-330.209882V903.529412h60.235294V542.117647h-361.411765z" p-id="4809"></path></svg>