<svg width="28" height="29" viewBox="0 0 28 29" fill="none" xmlns="http://www.w3.org/2000/svg">
<g clip-path="url(#clip0_205281_20826)">
<path d="M13.9875 1.20285C6.25938 1.19973 0 7.45598 0 15.1779C0 21.2841 3.91563 26.4747 9.36875 28.381C10.1031 28.5654 9.99063 28.0435 9.99063 27.6872V25.2654C5.75 25.7622 5.57813 22.956 5.29375 22.4872C4.71875 21.506 3.35938 21.256 3.76563 20.7872C4.73125 20.2904 5.71563 20.9122 6.85625 22.5966C7.68125 23.8185 9.29063 23.6122 10.1063 23.4091C10.2844 22.6747 10.6656 22.0185 11.1906 21.5091C6.79688 20.7216 4.96563 18.0404 4.96563 14.8529C4.96563 13.306 5.475 11.8841 6.475 10.7372C5.8375 8.8466 6.53438 7.22785 6.62813 6.98723C8.44375 6.82473 10.3313 8.28723 10.4781 8.40285C11.5094 8.12473 12.6875 7.97785 14.0063 7.97785C15.3313 7.97785 16.5125 8.13098 17.5531 8.41223C17.9063 8.14348 19.6563 6.88723 21.3438 7.04035C21.4344 7.28098 22.1156 8.86223 21.5156 10.7279C22.5281 11.8779 23.0438 13.3122 23.0438 14.8622C23.0438 18.056 21.2 20.7404 16.7938 21.5154C17.1712 21.8865 17.4708 22.3291 17.6753 22.8174C17.8797 23.3057 17.9848 23.8298 17.9844 24.3591V27.8747C18.0094 28.156 17.9844 28.4341 18.4531 28.4341C23.9875 26.5685 27.9719 21.3404 27.9719 15.181C27.9719 7.45598 21.7094 1.20285 13.9875 1.20285Z" fill="black" fill-opacity="0.45"/>
</g>
<defs>
<clipPath id="clip0_205281_20826">
<rect width="28" height="28" fill="white" transform="translate(0 0.820007)"/>
</clipPath>
</defs>
</svg>
