<?xml version="1.0" standalone="no"?><!DOCTYPE svg PUBLIC "-//W3C//DTD SVG 1.1//EN" "http://www.w3.org/Graphics/SVG/1.1/DTD/svg11.dtd"><svg t="1682403137379" class="icon" viewBox="0 0 1024 1024" version="1.1" xmlns="http://www.w3.org/2000/svg" p-id="8278" xmlns:xlink="http://www.w3.org/1999/xlink" width="200" height="200"><path d="M380.571429 274.857143q-34.285714 52.571429-78.285715 156-12.571429-25.714286-21.142857-41.428572T258 353.142857t-29.142857-32.285714-36-20T146.285714 292.571429H18.285714q-8 0-13.142857-5.142858t-5.142857-13.142857V164.571429q0-8 5.142857-13.142858t13.142857-5.142857h128q142.857143 0 234.285715 128.571429z m643.428571 456.571428q0 8-5.142857 13.142858l-182.857143 182.857142q-5.142857 5.142857-13.142857 5.142858-7.428571 0-12.857143-5.428572t-5.428571-12.857143v-109.714285q-18.285714 0-48.571429 0.285714t-46.285714 0.571428-41.714286-0.571428-40.571429-2.857143-36.571428-6-36-10.571429-33.142857-16.285714-33.714286-22.857143-31.428571-30.571428-32-39.714286q33.714286-53.142857 77.714285-156 12.571429 25.714286 21.142857 41.428571t23.142858 36.285715 29.142857 32.285714 36 20 46.571428 8.285714h146.285715V548.571429q0-8 5.142857-13.142858t13.142857-5.142857q6.857143 0 13.714286 5.714286l182.285714 182.285714q5.142857 5.142857 5.142857 13.142857z m0-512q0 8-5.142857 13.142858l-182.857143 182.857142q-5.142857 5.142857-13.142857 5.142858-7.428571 0-12.857143-5.428572T804.571429 402.285714V292.571429h-146.285715q-27.428571 0-49.714285 8.571428t-39.428572 25.714286-29.142857 35.142857-25.714286 44.285714q-18.285714 35.428571-44.571428 97.714286-16.571429 37.714286-28.285715 63.428571t-30.857142 60-36.571429 57.142858-42.285714 47.428571-51.428572 39.142857-60.857143 24-73.142857 9.428572H18.285714q-8 0-13.142857-5.142858t-5.142857-13.142857v-109.714285q0-8 5.142857-13.142858t13.142857-5.142857h128q27.428571 0 49.714286-8.571428t39.428571-25.714286 29.142858-35.142857 25.714285-44.285714q18.285714-35.428571 44.571429-97.714286 16.571429-37.714286 28.285714-63.428572t30.857143-60 36.571429-57.142857 42.285714-47.428571 51.428571-39.142857 60.857143-24 73.142857-9.428572h146.285715V36.571429q0-8 5.142857-13.142858t13.142857-5.142857q6.857143 0 13.714286 5.714286l182.285714 182.285714q5.142857 5.142857 5.142857 13.142857z" p-id="8279"></path></svg>
