<?xml version="1.0" standalone="no"?><!DOCTYPE svg PUBLIC "-//W3C//DTD SVG 1.1//EN" "http://www.w3.org/Graphics/SVG/1.1/DTD/svg11.dtd"><svg t="1681792341361" class="icon" viewBox="0 0 1024 1024" version="1.1" xmlns="http://www.w3.org/2000/svg" p-id="4530" xmlns:xlink="http://www.w3.org/1999/xlink" width="200" height="200"><path d="M943.525647 342.377412l-32.768-32.768c4.698353-10.782118 7.649882-22.166588 8.372706-33.852236a87.220706 87.220706 0 0 0-25.057882-68.065882l-105.110589-105.110588c-12.408471-12.408471-26.322824-18.672941-41.381647-18.672941-27.045647 0-46.320941 19.456-66.740706 40.116706l-544.286117 544.286117-20.178824 177.995294 6.324706 6.264471-58.548706 58.548706 71.860706 13.372235 29.334588-29.274353 6.264471 6.264471 177.935059-20.058353L873.411765 357.496471l27.467294 27.467294a15.058824 15.058824 0 0 1 4.577882 14.757647c-1.566118 8.493176-7.770353 18.672941-17.046588 27.949176l-181.669647 181.729883 42.586353 42.586353 181.669647-181.729883c18.251294-18.191059 29.936941-38.851765 33.731765-59.632941a74.872471 74.872471 0 0 0-21.202824-68.246588zM321.837176 823.838118l-128.180705 14.516706-14.155295-14.155295 14.576942-128.060235 338.642823-338.642823 127.759059 127.759058-338.642824 338.582589z m381.229177-381.168942L575.307294 314.910118l148.419765-148.419765c8.192-8.372706 20.600471-20.901647 22.64847-21.323294l105.110589 105.110588c7.228235 7.228235 7.770353 16.745412 7.529411 21.744941a43.550118 43.550118 0 0 1-13.131294 27.828706l-142.817882 142.817882z" p-id="4531"></path></svg>