<?xml version="1.0" standalone="no"?><!DOCTYPE svg PUBLIC "-//W3C//DTD SVG 1.1//EN" "http://www.w3.org/Graphics/SVG/1.1/DTD/svg11.dtd"><svg t="1682403141087" class="icon" viewBox="0 0 1024 1024" version="1.1" xmlns="http://www.w3.org/2000/svg" p-id="8420" xmlns:xlink="http://www.w3.org/1999/xlink" width="200" height="200"><path d="M477.714286 668l-8.571429 210.285714-1.142857 12.571429-240-16.571429q-20.571429-1.714286-38.285714-18t-26.857143-37.428571q-6.285714-15.428571-8.285714-31.428572t2.285714-37.142857 6.857143-31.428571 12.285714-36.571429 10.857143-30.285714q44.571429 6.857143 290.857143 16zM256.571429 333.142857l102.857142 216.571429-84-52.571429q-36 41.142857-63.714285 82.571429t-41.428572 71.428571-22.571428 54-10.571429 36l-2.285714 12L26.285714 549.142857q-9.714286-14.857143-10.285714-32t3.428571-26.857143l4.571429-10.285714q20-36 65.142857-107.428571L9.142857 323.428571z m703.428571 295.428572l-107.428571 205.142857q-6.857143 16.571429-20.857143 26.571428T806.857143 872l-10.285714 2.285714q-40.571429 4-125.142858 6.857143l4.571429 93.714286-131.428571-209.714286 120.571428-206.857143 4 98.857143q97.142857 9.142857 161.714286 2.857143t97.142857-18.857143zM511.428571 100.571429q-26.857143 36-151.428571 248.571428L178.857143 242.285714l-10.857143-6.857143L296.571429 32q11.428571-17.714286 34.285714-25.714286t45.714286-5.714285q13.714286 1.142857 27.714285 6.857142t24 12T452 38.285714t20.571429 19.714286 20.571428 22.571429 18.285714 20z m374.285715 175.428571l121.142857 207.428571q10.285714 21.142857 7.142857 43.428572t-15.714286 42.285714q-7.428571 11.428571-18.857143 21.142857t-21.714285 16-27.714286 12.571429-26.857143 9.142857-29.428571 8-26.285715 6.857143q-19.428571-41.142857-151.428571-249.142857l178.857143-111.428572z m-81.714286-129.142857l81.142857-47.428572-125.714286 213.142858-239.428571-11.428572 86.285714-49.142857q-19.428571-50.857143-42.857143-94.857143t-43.142857-70.571428-36.857143-45.714286T456.571429 14.285714l-9.714286-7.428571 231.428571 0.571428q17.714286-1.714286 33.142857 6t22.285715 16.285715l6.285714 8.571428q22.285714 34.857143 64 108.571429z" p-id="8421"></path></svg>
