<?xml version="1.0" standalone="no"?><!DOCTYPE svg PUBLIC "-//W3C//DTD SVG 1.1//EN" "http://www.w3.org/Graphics/SVG/1.1/DTD/svg11.dtd"><svg t="1681792379462" class="icon" viewBox="0 0 1024 1024" version="1.1" xmlns="http://www.w3.org/2000/svg" p-id="4669" xmlns:xlink="http://www.w3.org/1999/xlink" width="200" height="200"><path d="M809.923765 253.048471L496.941176 72.282353c-41.562353-23.913412-99.388235-8.493176-123.361882 33.129412l-361.411765 626.025411a90.533647 90.533647 0 0 0 33.129412 123.482353l191.488 109.869177 262.445177-1.084235 343.823058-587.233883a90.473412 90.473412 0 0 0-33.129411-123.422117z m-345.328941 650.541176l-211.907765 0.843294-177.392941-101.737412a30.177882 30.177882 0 0 1-11.023059-41.200941l165.647059-286.960941 363.038117 209.618824-128.361411 219.437176z m326.294588-557.417412l-167.514353 286.117647-363.339294-209.799529 165.647059-286.960941a30.298353 30.298353 0 0 1 41.140705-11.083294l312.982589 180.705882a30.117647 30.117647 0 0 1 11.083294 41.020235zM1024 903.529412v60.235294h-421.647059v-60.235294h421.647059z" p-id="4670"></path></svg>