<svg width="121" height="48" viewBox="0 0 121 48" fill="none" xmlns="http://www.w3.org/2000/svg">
<path d="M39.72 35.3994V24.6938L41.6231 25.7513V34.3325L39.72 35.3994ZM20.1862 44.5425L30.12 38.9613V40.79L21.8231 45.4569L20.1862 44.5425ZM2.01312 32.4369L12.28 38.2181L10.605 39.1613L2.01312 34.3325V32.4369ZM3.87812 12.16V22.7513L2.01312 21.6938V13.1981L3.87812 12.16ZM23.4975 3.10251L13.5169 8.87438V6.78813L21.8137 2.16938L23.4975 3.10251ZM41.6331 15.1125L31.0525 9.24563L32.7556 8.25563L41.6331 13.1981V15.1125ZM27.3987 11.36L29.14 10.3506L41.6331 17.2744V19.2463L27.3987 11.36ZM23.5644 13.5794L25.4862 12.465L41.6331 21.4081V23.5894L23.5644 13.5794ZM35.9144 22.5794L37.8362 23.6463V36.4663L35.9144 37.5425V22.5794ZM32.0131 29.3038V20.4269L34.0212 21.5419V38.6088L32.0131 39.7419V29.3038ZM30.12 34.6181V36.7894L18.255 43.4569L16.3237 42.3713L30.12 34.6181ZM21.8231 35.0275L28.16 31.4656L30.1294 30.3606V32.4469L14.3919 41.285L12.5269 40.2375L21.8231 35.0275ZM2.01312 28.1131L16.1144 36.0563L14.2019 37.1325L2.01312 30.2656V28.1131ZM11.6325 29.2844V29.3038L19.8919 33.9419L18.0456 34.98L2.01312 25.9419V23.8656L11.6325 29.2844ZM7.69375 24.8938L5.77125 23.8081V11.1031L7.69375 10.0363V24.8938ZM11.6325 18.2838V27.1131L9.58687 25.9606V8.97876L11.6325 7.83626V18.2838ZM13.5169 12.9031V11.055L25.4194 4.16938L27.0469 5.07376L13.5169 12.9031ZM13.5169 19.3988L21.8137 14.7794L30.11 19.3988V28.1988L21.8037 32.8656L13.5069 28.1894V19.3988H13.5169ZM13.5169 17.1981V15.0931L28.9687 6.16001L30.8237 7.19813L13.5169 17.1981ZM21.8231 0.00750732L0.119995 12.0838V35.4375L21.8231 47.6281L43.5262 35.4375V12.0838L21.8231 0.00750732Z" fill="#EDBD4E"/>
<path d="M57.8369 7.78589C58.92 7.78589 59.9781 7.94339 61.0119 8.25839C62.0469 8.57339 62.815 8.88526 63.3169 9.19339L64.0444 9.67839L62.2019 13.3159C62.055 13.2178 61.8525 13.0921 61.5944 12.9384C61.3356 12.7853 60.8506 12.5796 60.1394 12.3209C59.4275 12.0628 58.765 11.9334 58.1519 11.9334C57.3919 11.9334 56.805 12.0953 56.3919 12.4184C55.98 12.7421 55.7744 13.1784 55.7744 13.7284C55.7744 14.0021 55.8706 14.2559 56.0644 14.4909C56.2594 14.7259 56.5906 14.9771 57.0594 15.2434C57.5294 15.5103 57.9419 15.7246 58.2969 15.8859C58.6519 16.0478 59.2019 16.2903 59.9469 16.6134C61.24 17.1634 62.3431 17.9121 63.2569 18.8584C64.17 19.8034 64.6269 20.8734 64.6269 22.0684C64.6269 23.2171 64.42 24.2196 64.0069 25.0759C63.595 25.9328 63.0294 26.6034 62.3094 27.0884C61.5906 27.5734 60.795 27.9328 59.9219 28.1659C59.0481 28.4009 58.1025 28.5184 57.0844 28.5184C56.2106 28.5184 55.3531 28.429 54.5119 28.2509C53.6719 28.0746 52.9681 27.8528 52.4019 27.5859C51.8369 27.3196 51.3275 27.0571 50.8744 26.7984C50.4225 26.5403 50.0919 26.3221 49.8819 26.1434L49.5669 25.8759L51.8469 22.0459C52.04 22.2078 52.3069 22.4134 52.6469 22.6634C52.9869 22.9134 53.5894 23.2496 54.4544 23.6709C55.3194 24.0909 56.0825 24.3009 56.7444 24.3009C58.6694 24.3009 59.6319 23.6459 59.6319 22.3359C59.6319 22.0609 59.5625 21.8071 59.4244 21.5734C59.2875 21.3384 59.045 21.1046 58.6969 20.8709C58.35 20.6359 58.0425 20.4503 57.7744 20.3134C57.5075 20.1753 57.0706 19.9646 56.4644 19.6809C55.8594 19.3978 55.4106 19.1834 55.1194 19.0384C53.9075 18.4403 52.97 17.6928 52.3069 16.7959C51.6431 15.8978 51.3119 14.9309 51.3119 13.8959C51.3119 12.1028 51.9744 10.6359 53.2994 9.49589C54.6256 8.35589 56.1381 7.78589 57.8369 7.78589Z" fill="#EDBD4E"/>
<path d="M65.5486 8.15088H71.3436C74.1249 8.15088 76.5018 9.10088 78.4736 11.0009C80.4449 12.8996 81.4311 15.2796 81.4311 18.1409C81.4311 21.0196 80.4486 23.4084 78.4836 25.3084C76.5199 27.2071 74.1399 28.1559 71.3436 28.1559H65.5486V8.15088ZM70.1086 24.0809H70.8111C72.4761 24.0809 73.8374 23.5196 74.8961 22.3959C75.9561 21.2728 76.4936 19.8628 76.5086 18.1659C76.5086 16.4678 75.9793 15.0528 74.9211 13.9209C73.8624 12.7896 72.4924 12.2234 70.8111 12.2234H70.1086V24.0809Z" fill="#EDBD4E"/>
<path d="M92.8784 24.0334C93.5734 24.0334 94.2484 23.9284 94.9034 23.7184C95.5584 23.5084 96.0391 23.3059 96.3459 23.1109L96.8084 22.7959L98.7484 26.6759C98.6834 26.7246 98.5941 26.7896 98.4809 26.8709C98.3672 26.9509 98.1041 27.1003 97.6909 27.3184C97.2791 27.5371 96.8391 27.7271 96.3709 27.8884C95.9022 28.0503 95.2884 28.1946 94.5284 28.3234C93.7684 28.4534 92.9841 28.5184 92.1759 28.5184C90.3159 28.5184 88.5534 28.0621 86.8884 27.1484C85.2234 26.2353 83.8816 24.9784 82.8634 23.3784C81.8447 21.7784 81.3359 20.0484 81.3359 18.1884C81.3359 16.7821 81.6347 15.4321 82.2334 14.1384C82.8316 12.8453 83.6272 11.7384 84.6209 10.8184C85.6159 9.89714 86.7759 9.16089 88.1009 8.61089C89.4272 8.06089 90.7859 7.78589 92.1759 7.78589C93.4691 7.78589 94.6609 7.94026 95.7509 8.24839C96.8422 8.55526 97.6147 8.86214 98.0684 9.16839L98.7484 9.62839L96.8084 13.5084C96.6947 13.4121 96.5247 13.2953 96.2984 13.1584C96.0716 13.0203 95.6184 12.8384 94.9384 12.6134C94.2597 12.3871 93.5734 12.2734 92.8784 12.2734C91.7797 12.2734 90.7941 12.4509 89.9209 12.8059C89.0472 13.1609 88.3559 13.6303 87.8459 14.2134C87.3372 14.7953 86.9497 15.4221 86.6834 16.0934C86.4166 16.7634 86.2834 17.4459 86.2834 18.1409C86.2834 19.6609 86.8534 21.0234 87.9934 22.2284C89.1334 23.4321 90.7616 24.0334 92.8784 24.0334Z" fill="#EDBD4E"/>
<path d="M103.842 15.7409V28.1559H99.282V8.15088H103.842L111.795 20.5659H111.845V8.15088H116.402V28.1559H111.845L103.89 15.7409H103.842Z" fill="#EDBD4E"/>
<path d="M49.6369 36.9798H49.3369C49.29 36.9798 49.2669 36.9585 49.2669 36.9148V35.6598C49.2669 35.6135 49.29 35.5898 49.3369 35.5898H49.6744C49.7175 35.5898 49.7394 35.6135 49.7394 35.6598V35.7723C49.7394 35.841 49.78 35.9317 49.8619 36.0448C49.945 36.1567 50.0275 36.2485 50.1094 36.3198C50.1925 36.3917 50.3025 36.4535 50.4394 36.5048C50.5775 36.5567 50.7275 36.5823 50.8894 36.5823C51.1644 36.5823 51.3794 36.526 51.5344 36.4123C51.6907 36.2973 51.7694 36.1373 51.7694 35.9323C51.7694 35.8142 51.725 35.7135 51.6369 35.6298C51.55 35.5448 51.4369 35.4773 51.2969 35.4273C51.1569 35.3773 51.0019 35.3317 50.8319 35.2898C50.6619 35.2467 50.4919 35.1973 50.3219 35.1423C50.1519 35.086 49.9969 35.0192 49.8569 34.9423C49.7182 34.866 49.605 34.7585 49.5169 34.6198C49.4282 34.4817 49.3844 34.3198 49.3844 34.1348C49.3844 33.8335 49.4975 33.5842 49.7244 33.3873C49.9525 33.191 50.2582 33.0923 50.6419 33.0923C51.125 33.0923 51.4794 33.2342 51.7044 33.5173L51.6944 33.1823C51.6944 33.141 51.7175 33.1198 51.7644 33.1198H52.0644C52.1075 33.1198 52.1294 33.141 52.1294 33.1823V34.3548C52.1294 34.3967 52.1075 34.4173 52.0644 34.4173H51.7269C51.6832 34.4173 51.6619 34.3967 51.6619 34.3548V34.2023C51.6619 34.056 51.5794 33.9073 51.4144 33.7573C51.2494 33.6073 51.0075 33.5323 50.6894 33.5323C50.4544 33.5323 50.2644 33.5892 50.1194 33.7023C49.9744 33.8142 49.9019 33.9585 49.9019 34.1348C49.9019 34.2598 49.9457 34.3673 50.0344 34.4573C50.1244 34.546 50.2407 34.6173 50.3844 34.6723C50.5275 34.726 50.685 34.7748 50.8569 34.8198C51.0282 34.8635 51.2 34.9123 51.3719 34.9673C51.5432 35.021 51.7007 35.0848 51.8444 35.1598C51.9875 35.2348 52.1032 35.3385 52.1919 35.4698C52.2819 35.5998 52.3269 35.7542 52.3269 35.9323C52.3269 36.2473 52.2144 36.5073 51.9894 36.7123C51.7644 36.916 51.4275 37.0173 50.9794 37.0173C50.6507 37.0173 50.3794 36.9517 50.1644 36.8198C49.9494 36.6867 49.7932 36.5435 49.6969 36.3898L49.7019 36.9148C49.7019 36.9585 49.68 36.9798 49.6369 36.9798Z" fill="#EDBD4E"/>
<path d="M55.4218 36.9798H54.1693C54.1224 36.9798 54.0993 36.9567 54.0993 36.9098V36.6473C54.0993 36.601 54.1224 36.5773 54.1693 36.5773H54.5793V33.5273H53.5643V34.0973C53.5643 34.1473 53.538 34.1723 53.4868 34.1723H53.1868C53.1368 34.1723 53.1118 34.1473 53.1118 34.0973V33.1948C53.1118 33.1485 53.1368 33.1248 53.1868 33.1248H56.4243C56.4743 33.1248 56.4993 33.1485 56.4993 33.1948V34.0973C56.4993 34.1473 56.4743 34.1723 56.4243 34.1723H56.1193C56.0724 34.1723 56.0493 34.1473 56.0493 34.0973V33.5273H55.0443V36.5773H55.4218C55.4718 36.5773 55.4968 36.601 55.4968 36.6473V36.9098C55.4968 36.9567 55.4718 36.9798 55.4218 36.9798Z" fill="#EDBD4E"/>
<path d="M61.1516 36.9798H59.9366C59.8929 36.9798 59.8716 36.9585 59.8716 36.9148V36.6423C59.8716 36.5992 59.8929 36.5773 59.9366 36.5773H60.3141L59.9641 35.6473H58.4666L58.1166 36.5773H58.4916C58.5347 36.5773 58.5566 36.5992 58.5566 36.6423V36.9148C58.5566 36.9585 58.5347 36.9798 58.4916 36.9798H57.2841C57.2404 36.9798 57.2191 36.9585 57.2191 36.9148V36.6423C57.2191 36.5992 57.2404 36.5773 57.2841 36.5773H57.6441L58.7991 33.5273H58.5091C58.4622 33.5273 58.4391 33.506 58.4391 33.4623V33.1898C58.4391 33.1467 58.4622 33.1248 58.5091 33.1248H59.2391C59.3254 33.1248 59.3904 33.1435 59.4341 33.1798C59.4791 33.2148 59.5179 33.2735 59.5516 33.3548L60.7866 36.5773H61.1516C61.1929 36.5773 61.2141 36.5992 61.2141 36.6423V36.9148C61.2141 36.9585 61.1929 36.9798 61.1516 36.9798ZM59.8191 35.2773L59.2241 33.6823H59.2066L58.6066 35.2773H59.8191Z" fill="#EDBD4E"/>
<path d="M63.8737 36.9798H62.1387C62.0919 36.9798 62.0687 36.9585 62.0687 36.9148V36.6423C62.0687 36.5992 62.0919 36.5773 62.1387 36.5773H62.5462V33.5273H62.1387C62.0919 33.5273 62.0687 33.506 62.0687 33.4623V33.1898C62.0687 33.1467 62.0919 33.1248 62.1387 33.1248H63.8687C64.225 33.1248 64.5025 33.2198 64.7012 33.4098C64.9012 33.5985 65.0012 33.8467 65.0012 34.1548C65.0012 34.5167 64.8419 34.7873 64.5237 34.9673C64.9819 35.0992 65.2112 35.4035 65.2112 35.8798C65.2112 36.2167 65.0987 36.4842 64.8737 36.6823C64.65 36.881 64.3169 36.9798 63.8737 36.9798ZM63.0137 36.5773H63.8362C64.1175 36.5773 64.3387 36.5173 64.4987 36.3973C64.6587 36.2773 64.7387 36.0923 64.7387 35.8423C64.7387 35.3942 64.4487 35.1698 63.8687 35.1698H63.0137V36.5773ZM63.0137 34.8148H63.8362C64.0212 34.8117 64.1825 34.7585 64.3212 34.6548C64.4594 34.5517 64.5287 34.3892 64.5287 34.1673C64.5287 33.9442 64.4562 33.7817 64.3112 33.6798C64.1662 33.5785 63.9875 33.5273 63.7762 33.5273H63.0137V34.8148Z" fill="#EDBD4E"/>
<path d="M69.0016 36.9798H66.0641C66.0172 36.9798 65.9941 36.9585 65.9941 36.9148V36.6423C65.9941 36.5992 66.0172 36.5773 66.0641 36.5773H66.4716V33.5273H66.0641C66.0172 33.5273 65.9941 33.506 65.9941 33.4623V33.1898C65.9941 33.1467 66.0172 33.1248 66.0641 33.1248H67.3466C67.3928 33.1248 67.4166 33.1485 67.4166 33.1948V33.4573C67.4166 33.5042 67.3928 33.5273 67.3466 33.5273H66.9391V36.5773H68.6466V36.0498C68.6466 36.0085 68.6697 35.9873 68.7166 35.9873H69.0066C69.0497 35.9873 69.0716 36.0085 69.0716 36.0498V36.9098C69.0716 36.9567 69.0478 36.9798 69.0016 36.9798Z" fill="#EDBD4E"/>
<path d="M72.7829 36.9798H69.9304C69.8835 36.9798 69.8604 36.9585 69.8604 36.9148V36.6423C69.8604 36.5992 69.8835 36.5773 69.9304 36.5773H70.3379V33.5273H69.9304C69.8835 33.5273 69.8604 33.506 69.8604 33.4623V33.1898C69.8604 33.1467 69.8835 33.1248 69.9304 33.1248H72.7829C72.8292 33.1248 72.8529 33.1467 72.8529 33.1898V34.0523C72.8529 34.0992 72.8292 34.1223 72.7829 34.1223H72.4929C72.4492 34.1223 72.4279 34.0992 72.4279 34.0523V33.5273H70.8054V34.8598H72.1654C72.2117 34.8598 72.2354 34.881 72.2354 34.9223V35.1973C72.2354 35.241 72.2117 35.2623 72.1654 35.2623H70.8054V36.5773H72.4229V36.0498C72.4229 36.0085 72.446 35.9873 72.4929 35.9873H72.7829C72.8292 35.9873 72.8529 36.0085 72.8529 36.0498V36.9148C72.8529 36.9585 72.8292 36.9798 72.7829 36.9798Z" fill="#EDBD4E"/>
<path d="M77.1647 36.9798H75.6222C75.5784 36.9798 75.5572 36.9585 75.5572 36.9148V36.6423C75.5572 36.5992 75.5784 36.5773 75.6222 36.5773H76.0372V33.5273H75.6222C75.5784 33.5273 75.5572 33.506 75.5572 33.4623V33.1898C75.5572 33.1467 75.5784 33.1248 75.6222 33.1248H77.0722C77.6672 33.1248 78.1397 33.296 78.4897 33.6373C78.8409 33.9792 79.0172 34.4492 79.0172 35.0473C79.0172 35.6442 78.8503 36.116 78.5172 36.4623C78.1834 36.8073 77.7328 36.9798 77.1647 36.9798ZM76.5022 36.5773H77.0347C78.0297 36.571 78.5272 36.0642 78.5272 35.0573C78.5272 34.5742 78.3984 34.1985 78.1422 33.9298C77.8872 33.6617 77.5128 33.5273 77.0197 33.5273H76.5022V36.5773Z" fill="#EDBD4E"/>
<path d="M81.1869 36.9798H79.8969C79.85 36.9798 79.8269 36.9585 79.8269 36.9148V36.6423C79.8269 36.5992 79.85 36.5773 79.8969 36.5773H80.3044V33.5273H79.8969C79.85 33.5273 79.8269 33.506 79.8269 33.4623V33.1898C79.8269 33.1467 79.85 33.1248 79.8969 33.1248H81.1869C81.2319 33.1248 81.2544 33.1467 81.2544 33.1898V33.4623C81.2544 33.506 81.2319 33.5273 81.1869 33.5273H80.7719V36.5773H81.1869C81.2319 36.5773 81.2544 36.5992 81.2544 36.6423V36.9148C81.2544 36.9585 81.2319 36.9798 81.1869 36.9798Z" fill="#EDBD4E"/>
<path d="M83.5918 36.9798H82.1093C82.0624 36.9798 82.0393 36.9585 82.0393 36.9148V36.6423C82.0393 36.5992 82.0624 36.5773 82.1093 36.5773H82.5168V33.5273H82.1093C82.0624 33.5273 82.0393 33.506 82.0393 33.4623V33.1898C82.0393 33.1467 82.0624 33.1248 82.1093 33.1248H84.8643C84.9106 33.1248 84.9343 33.1467 84.9343 33.1898V34.0523C84.9343 34.0992 84.9106 34.1223 84.8643 34.1223H84.5743C84.5306 34.1223 84.5093 34.0992 84.5093 34.0523V33.5273H82.9843V34.8598H84.2468C84.2931 34.8598 84.3168 34.881 84.3168 34.9223V35.1973C84.3168 35.241 84.2931 35.2623 84.2468 35.2623H82.9843V36.5773H83.5918C83.6349 36.5773 83.6568 36.5992 83.6568 36.6423V36.9148C83.6568 36.9585 83.6349 36.9798 83.5918 36.9798Z" fill="#EDBD4E"/>
<path d="M87.2702 36.9798H85.7877C85.7408 36.9798 85.7177 36.9585 85.7177 36.9148V36.6423C85.7177 36.5992 85.7408 36.5773 85.7877 36.5773H86.1952V33.5273H85.7877C85.7408 33.5273 85.7177 33.506 85.7177 33.4623V33.1898C85.7177 33.1467 85.7408 33.1248 85.7877 33.1248H88.5427C88.5889 33.1248 88.6127 33.1467 88.6127 33.1898V34.0523C88.6127 34.0992 88.5889 34.1223 88.5427 34.1223H88.2527C88.2089 34.1223 88.1877 34.0992 88.1877 34.0523V33.5273H86.6627V34.8598H87.9252C87.9714 34.8598 87.9952 34.881 87.9952 34.9223V35.1973C87.9952 35.241 87.9714 35.2623 87.9252 35.2623H86.6627V36.5773H87.2702C87.3133 36.5773 87.3352 36.5992 87.3352 36.6423V36.9148C87.3352 36.9585 87.3133 36.9798 87.2702 36.9798Z" fill="#EDBD4E"/>
<path d="M92.3061 35.5848V33.5273H91.8936C91.8498 33.5273 91.8286 33.506 91.8286 33.4623V33.1898C91.8286 33.1467 91.8498 33.1248 91.8936 33.1248H93.1886C93.2298 33.1248 93.2511 33.1467 93.2511 33.1898V33.4623C93.2511 33.506 93.2298 33.5273 93.1886 33.5273H92.7736V35.5348C92.7736 36.0185 92.6467 36.3867 92.3936 36.6398C92.1417 36.8917 91.7861 37.0173 91.3261 37.0173C90.8661 37.0173 90.5086 36.8917 90.2536 36.6398C89.9998 36.3867 89.8736 36.0185 89.8736 35.5348V33.5273H89.4661C89.4192 33.5273 89.3961 33.506 89.3961 33.4623V33.1898C89.3961 33.1467 89.4192 33.1248 89.4661 33.1248H90.7561C90.8011 33.1248 90.8236 33.1467 90.8236 33.1898V33.4623C90.8236 33.506 90.8011 33.5273 90.7561 33.5273H90.3411V35.5523C90.3411 36.2392 90.6698 36.5823 91.3286 36.5823C91.6648 36.5823 91.9117 36.4942 92.0686 36.3173C92.2267 36.1392 92.3061 35.8948 92.3061 35.5848Z" fill="#EDBD4E"/>
<path d="M94.4056 36.9798H94.1056C94.0588 36.9798 94.0356 36.9585 94.0356 36.9148V35.6598C94.0356 35.6135 94.0588 35.5898 94.1056 35.5898H94.4431C94.4863 35.5898 94.5081 35.6135 94.5081 35.6598V35.7723C94.5081 35.841 94.5488 35.9317 94.6306 36.0448C94.7138 36.1567 94.7963 36.2485 94.8781 36.3198C94.9613 36.3917 95.0713 36.4535 95.2081 36.5048C95.3463 36.5567 95.4963 36.5823 95.6581 36.5823C95.9331 36.5823 96.1481 36.526 96.3031 36.4123C96.4594 36.2973 96.5381 36.1373 96.5381 35.9323C96.5381 35.8142 96.4938 35.7135 96.4056 35.6298C96.3188 35.5448 96.2056 35.4773 96.0656 35.4273C95.9256 35.3773 95.7706 35.3317 95.6006 35.2898C95.4306 35.2467 95.2606 35.1973 95.0906 35.1423C94.9206 35.086 94.7656 35.0192 94.6256 34.9423C94.4869 34.866 94.3738 34.7585 94.2856 34.6198C94.1969 34.4817 94.1531 34.3198 94.1531 34.1348C94.1531 33.8335 94.2663 33.5842 94.4931 33.3873C94.7213 33.191 95.0269 33.0923 95.4106 33.0923C95.8938 33.0923 96.2481 33.2342 96.4731 33.5173L96.4631 33.1823C96.4631 33.141 96.4863 33.1198 96.5331 33.1198H96.8331C96.8763 33.1198 96.8981 33.141 96.8981 33.1823V34.3548C96.8981 34.3967 96.8763 34.4173 96.8331 34.4173H96.4956C96.4519 34.4173 96.4306 34.3967 96.4306 34.3548V34.2023C96.4306 34.056 96.3481 33.9073 96.1831 33.7573C96.0181 33.6073 95.7763 33.5323 95.4581 33.5323C95.2231 33.5323 95.0331 33.5892 94.8881 33.7023C94.7431 33.8142 94.6706 33.9585 94.6706 34.1348C94.6706 34.2598 94.7144 34.3673 94.8031 34.4573C94.8931 34.546 95.0094 34.6173 95.1531 34.6723C95.2963 34.726 95.4538 34.7748 95.6256 34.8198C95.7969 34.8635 95.9688 34.9123 96.1406 34.9673C96.3119 35.021 96.4694 35.0848 96.6131 35.1598C96.7563 35.2348 96.8719 35.3385 96.9606 35.4698C97.0506 35.5998 97.0956 35.7542 97.0956 35.9323C97.0956 36.2473 96.9831 36.5073 96.7581 36.7123C96.5331 36.916 96.1963 37.0173 95.7481 37.0173C95.4194 37.0173 95.1481 36.9517 94.9331 36.8198C94.7181 36.6867 94.5619 36.5435 94.4656 36.3898L94.4706 36.9148C94.4706 36.9585 94.4488 36.9798 94.4056 36.9798Z" fill="#EDBD4E"/>
<path d="M99.2405 36.9798H97.9505C97.9036 36.9798 97.8805 36.9585 97.8805 36.9148V36.6423C97.8805 36.5992 97.9036 36.5773 97.9505 36.5773H98.358V33.5273H97.9505C97.9036 33.5273 97.8805 33.506 97.8805 33.4623V33.1898C97.8805 33.1467 97.9036 33.1248 97.9505 33.1248H99.2405C99.2855 33.1248 99.308 33.1467 99.308 33.1898V33.4623C99.308 33.506 99.2855 33.5273 99.2405 33.5273H98.8255V36.5773H99.2405C99.2855 36.5773 99.308 36.5992 99.308 36.6423V36.9148C99.308 36.9585 99.2855 36.9798 99.2405 36.9798Z" fill="#EDBD4E"/>
<path d="M103.83 35.0348C103.83 35.6235 103.654 36.101 103.3 36.4673C102.949 36.8342 102.505 37.0173 101.97 37.0173C101.435 37.0173 100.989 36.8323 100.63 36.4623C100.272 36.091 100.093 35.6123 100.093 35.0273C100.093 34.4423 100.277 33.9742 100.645 33.6223C101.015 33.2692 101.456 33.0923 101.968 33.0923C102.479 33.0923 102.918 33.2692 103.283 33.6223C103.648 33.9742 103.83 34.4448 103.83 35.0348ZM101.008 36.1723C101.283 36.446 101.603 36.5823 101.968 36.5823C102.333 36.5823 102.651 36.446 102.923 36.1723C103.194 35.8973 103.33 35.5217 103.33 35.0448C103.33 34.5667 103.191 34.1923 102.913 33.9223C102.636 33.6523 102.32 33.5173 101.965 33.5173C101.612 33.5173 101.295 33.6523 101.015 33.9223C100.737 34.1923 100.598 34.5667 100.598 35.0448C100.598 35.5217 100.734 35.8973 101.008 36.1723Z" fill="#EDBD4E"/>
<path d="M107.96 36.9798H107.67C107.601 36.9798 107.547 36.9667 107.507 36.9398C107.468 36.9135 107.432 36.871 107.397 36.8123L105.845 34.3873L105.575 33.9348H105.565V36.5773H105.98C106.025 36.5773 106.047 36.5992 106.047 36.6423V36.9148C106.047 36.9585 106.025 36.9798 105.98 36.9798H104.69C104.643 36.9798 104.62 36.9585 104.62 36.9148V36.6423C104.62 36.5992 104.643 36.5773 104.69 36.5773H105.097V33.5273H104.69C104.643 33.5273 104.62 33.506 104.62 33.4623V33.1898C104.62 33.1467 104.643 33.1248 104.69 33.1248H105.442C105.545 33.1248 105.636 33.186 105.715 33.3073L107.245 35.7023L107.552 36.2223H107.562V33.5273H107.15C107.106 33.5273 107.085 33.506 107.085 33.4623V33.1898C107.085 33.1467 107.106 33.1248 107.15 33.1248H108.442C108.485 33.1248 108.507 33.1467 108.507 33.1898V33.4623C108.507 33.506 108.485 33.5273 108.442 33.5273H108.03V36.9148C108.03 36.9585 108.006 36.9798 107.96 36.9798Z" fill="#EDBD4E"/>
<path d="M52.7519 42.9362C52.77 42.9512 52.7794 42.9687 52.7794 42.9887C52.7794 43.0075 52.7707 43.0337 52.7544 43.0687C52.7394 43.1025 52.7125 43.1475 52.6744 43.2037C52.6357 43.2587 52.5682 43.335 52.4719 43.4312C52.375 43.5281 52.2694 43.6112 52.1544 43.6812C52.0407 43.7512 51.89 43.8131 51.7019 43.8662C51.5132 43.9193 51.3125 43.9462 51.0994 43.9462C50.5757 43.9462 50.1394 43.7637 49.7894 43.3987C49.4407 43.0337 49.2669 42.5556 49.2669 41.9637C49.2669 41.3706 49.4425 40.8987 49.7944 40.5487C50.1475 40.1975 50.5732 40.0212 51.0719 40.0212C51.6269 40.0212 52.0294 40.2131 52.2794 40.5962L52.2744 40.1187C52.2675 40.0756 52.2894 40.0537 52.3394 40.0537H52.6394C52.6857 40.0537 52.7094 40.0756 52.7094 40.1187V41.2887C52.7094 41.3356 52.6857 41.3587 52.6394 41.3587H52.3019C52.2582 41.3587 52.2369 41.3356 52.2369 41.2887V41.2387C52.2369 41.0756 52.1244 40.9056 51.8994 40.7287C51.6757 40.5506 51.3975 40.4612 51.0644 40.4612C50.7325 40.4612 50.4332 40.5931 50.1669 40.8562C49.9 41.12 49.7669 41.4925 49.7669 41.9737C49.7669 42.4556 49.9007 42.83 50.1694 43.0962C50.4375 43.3631 50.7525 43.4962 51.1144 43.4962C51.5044 43.4962 51.8119 43.4081 52.0369 43.2312C52.2132 43.0962 52.3425 42.9587 52.4244 42.8187C52.4525 42.7656 52.4869 42.755 52.5269 42.7862L52.7519 42.9362Z" fill="#EDBD4E"/>
<path d="M57.311 41.9637C57.311 42.5525 57.1342 43.03 56.781 43.3962C56.4292 43.7631 55.986 43.9462 55.451 43.9462C54.916 43.9462 54.4692 43.7612 54.111 43.3912C53.7523 43.02 53.5735 42.5412 53.5735 41.9562C53.5735 41.3712 53.7573 40.9031 54.126 40.5512C54.496 40.1981 54.9367 40.0212 55.4485 40.0212C55.9598 40.0212 56.3985 40.1981 56.7635 40.5512C57.1285 40.9031 57.311 41.3737 57.311 41.9637ZM54.4885 43.1012C54.7635 43.375 55.0835 43.5112 55.4485 43.5112C55.8135 43.5112 56.1317 43.375 56.4035 43.1012C56.6748 42.8262 56.811 42.4506 56.811 41.9737C56.811 41.4956 56.6717 41.1212 56.3935 40.8512C56.1167 40.5812 55.801 40.4462 55.446 40.4462C55.0923 40.4462 54.776 40.5812 54.496 40.8512C54.2173 41.1212 54.0785 41.4956 54.0785 41.9737C54.0785 42.4506 54.2148 42.8262 54.4885 43.1012Z" fill="#EDBD4E"/>
<path d="M62.4553 43.9087H61.2153C61.1716 43.9087 61.1503 43.8874 61.1503 43.8437V43.5712C61.1503 43.5281 61.1716 43.5062 61.2153 43.5062H61.5753V40.8312H61.5703L60.5503 43.3662C60.5066 43.4731 60.4278 43.5262 60.3128 43.5262C60.1978 43.5262 60.1191 43.4731 60.0778 43.3662L59.0553 40.8312H59.0453V43.5062H59.4053C59.4516 43.5062 59.4753 43.5281 59.4753 43.5712V43.8437C59.4753 43.8874 59.4516 43.9087 59.4053 43.9087H58.1703C58.1235 43.9087 58.1003 43.8874 58.1003 43.8437V43.5712C58.1003 43.5281 58.1235 43.5062 58.1703 43.5062H58.5778V40.4562H58.1703C58.1235 40.4562 58.1003 40.4349 58.1003 40.3912V40.1187C58.1003 40.0756 58.1235 40.0537 58.1703 40.0537H58.9978C59.1191 40.0537 59.2035 40.1149 59.2503 40.2362L60.0503 42.1687L60.3028 42.8462H60.3228C60.4241 42.5662 60.5066 42.3437 60.5703 42.1787L61.3753 40.2362C61.4216 40.1149 61.5078 40.0537 61.6328 40.0537H62.4553C62.4985 40.0537 62.5203 40.0756 62.5203 40.1187V40.3912C62.5203 40.4349 62.4985 40.4562 62.4553 40.4562H62.0428V43.5062H62.4553C62.4985 43.5062 62.5203 43.5281 62.5203 43.5712V43.8437C62.5203 43.8874 62.4985 43.9087 62.4553 43.9087Z" fill="#EDBD4E"/>
<path d="M64.7763 43.9087H63.3738C63.3269 43.9087 63.3038 43.8874 63.3038 43.8437V43.5712C63.3038 43.5281 63.3269 43.5062 63.3738 43.5062H63.7813V40.4562H63.3738C63.3269 40.4562 63.3038 40.4349 63.3038 40.3912V40.1187C63.3038 40.0756 63.3269 40.0537 63.3738 40.0537H65.0288C65.4069 40.0537 65.7169 40.1637 65.9588 40.3837C66.2 40.6037 66.3213 40.9012 66.3213 41.2762C66.3213 41.6499 66.2025 41.9399 65.9663 42.1462C65.7313 42.3512 65.3988 42.4537 64.9688 42.4537H64.2488V43.5062H64.7763C64.8175 43.5062 64.8388 43.5281 64.8388 43.5712V43.8437C64.8388 43.8874 64.8175 43.9087 64.7763 43.9087ZM64.2488 42.0712H64.9463C65.5475 42.0712 65.8488 41.8062 65.8488 41.2762C65.8488 41.0012 65.7638 40.7962 65.5938 40.6612C65.4238 40.5249 65.21 40.4562 64.9538 40.4562H64.2488V42.0712Z" fill="#EDBD4E"/>
<path d="M70.0156 42.5137V40.4562H69.6031C69.5594 40.4562 69.5381 40.4349 69.5381 40.3912V40.1187C69.5381 40.0756 69.5594 40.0537 69.6031 40.0537H70.8981C70.9394 40.0537 70.9606 40.0756 70.9606 40.1187V40.3912C70.9606 40.4349 70.9394 40.4562 70.8981 40.4562H70.4831V42.4637C70.4831 42.9474 70.3563 43.3156 70.1031 43.5687C69.8513 43.8206 69.4956 43.9462 69.0356 43.9462C68.5757 43.9462 68.2182 43.8206 67.9632 43.5687C67.7094 43.3156 67.5832 42.9474 67.5832 42.4637V40.4562H67.1757C67.1288 40.4562 67.1057 40.4349 67.1057 40.3912V40.1187C67.1057 40.0756 67.1288 40.0537 67.1757 40.0537H68.4657C68.5107 40.0537 68.5332 40.0756 68.5332 40.1187V40.3912C68.5332 40.4349 68.5107 40.4562 68.4657 40.4562H68.0507V42.4812C68.0507 43.1681 68.3794 43.5112 69.0381 43.5112C69.3744 43.5112 69.6213 43.4231 69.7781 43.2462C69.9363 43.0681 70.0156 42.8237 70.0156 42.5137Z" fill="#EDBD4E"/>
<path d="M74.0552 43.9087H72.8027C72.7559 43.9087 72.7327 43.8856 72.7327 43.8387V43.5762C72.7327 43.5299 72.7559 43.5062 72.8027 43.5062H73.2127V40.4562H72.1977V41.0262C72.1977 41.0762 72.1715 41.1012 72.1202 41.1012H71.8202C71.7702 41.1012 71.7452 41.0762 71.7452 41.0262V40.1237C71.7452 40.0774 71.7702 40.0537 71.8202 40.0537H75.0577C75.1077 40.0537 75.1327 40.0774 75.1327 40.1237V41.0262C75.1327 41.0762 75.1077 41.1012 75.0577 41.1012H74.7527C74.7059 41.1012 74.6827 41.0762 74.6827 41.0262V40.4562H73.6777V43.5062H74.0552C74.1052 43.5062 74.1302 43.5299 74.1302 43.5762V43.8387C74.1302 43.8856 74.1052 43.9087 74.0552 43.9087Z" fill="#EDBD4E"/>
<path d="M77.2776 43.9087H75.9876C75.9407 43.9087 75.9176 43.8874 75.9176 43.8437V43.5712C75.9176 43.5281 75.9407 43.5062 75.9876 43.5062H76.3951V40.4562H75.9876C75.9407 40.4562 75.9176 40.4349 75.9176 40.3912V40.1187C75.9176 40.0756 75.9407 40.0537 75.9876 40.0537H77.2776C77.3226 40.0537 77.3451 40.0756 77.3451 40.1187V40.3912C77.3451 40.4349 77.3226 40.4562 77.2776 40.4562H76.8626V43.5062H77.2776C77.3226 43.5062 77.3451 43.5281 77.3451 43.5712V43.8437C77.3451 43.8874 77.3226 43.9087 77.2776 43.9087Z" fill="#EDBD4E"/>
<path d="M81.47 43.9087H81.18C81.1113 43.9087 81.0575 43.8956 81.0175 43.8687C80.9788 43.8424 80.9425 43.7999 80.9075 43.7412L79.355 41.3162L79.085 40.8637H79.075V43.5062H79.49C79.535 43.5062 79.5575 43.5281 79.5575 43.5712V43.8437C79.5575 43.8874 79.535 43.9087 79.49 43.9087H78.2C78.1531 43.9087 78.13 43.8874 78.13 43.8437V43.5712C78.13 43.5281 78.1531 43.5062 78.2 43.5062H78.6075V40.4562H78.2C78.1531 40.4562 78.13 40.4349 78.13 40.3912V40.1187C78.13 40.0756 78.1531 40.0537 78.2 40.0537H78.9525C79.0556 40.0537 79.1463 40.1149 79.225 40.2362L80.755 42.6312L81.0625 43.1512H81.0725V40.4562H80.66C80.6163 40.4562 80.595 40.4349 80.595 40.3912V40.1187C80.595 40.0756 80.6163 40.0537 80.66 40.0537H81.9525C81.9956 40.0537 82.0175 40.0756 82.0175 40.1187V40.3912C82.0175 40.4349 81.9956 40.4562 81.9525 40.4562H81.54V43.8437C81.54 43.8874 81.5163 43.9087 81.47 43.9087Z" fill="#EDBD4E"/>
<path d="M86.2493 43.9087H85.9643C85.9174 43.9087 85.8943 43.8875 85.8943 43.8437L85.8993 43.4737C85.5843 43.7887 85.1643 43.9462 84.6393 43.9462C84.1156 43.9462 83.6781 43.7637 83.3268 43.3987C82.9768 43.0337 82.8018 42.5537 82.8018 41.9587C82.8018 41.5625 82.8899 41.2137 83.0668 40.9137C83.2449 40.6125 83.4706 40.3881 83.7443 40.2412C84.0174 40.095 84.3143 40.0212 84.6343 40.0212C85.1806 40.0212 85.5743 40.1912 85.8143 40.5312L85.8093 40.1187C85.8024 40.0756 85.8243 40.0537 85.8743 40.0537H86.1743C86.2206 40.0537 86.2443 40.0756 86.2443 40.1187V41.2237C86.2443 41.2675 86.2206 41.2887 86.1743 41.2887H85.8368C85.7931 41.2887 85.7718 41.2675 85.7718 41.2237V41.1587C85.7718 41.0025 85.6631 40.8475 85.4468 40.6937C85.2299 40.5387 84.9531 40.4612 84.6168 40.4612C84.2799 40.4612 83.9768 40.6006 83.7068 40.8787C83.4368 41.1556 83.3018 41.5256 83.3018 41.9887C83.3018 42.4525 83.4374 42.82 83.7093 43.0912C83.9806 43.3612 84.2849 43.4962 84.6218 43.4962C84.9581 43.4962 85.2243 43.4431 85.4193 43.3362C85.6143 43.2281 85.7599 43.1006 85.8568 42.9537V42.5337H84.8593C84.8156 42.5337 84.7943 42.5106 84.7943 42.4637V42.2162C84.7943 42.175 84.8156 42.1537 84.8593 42.1537H86.2493C86.2924 42.1537 86.3143 42.175 86.3143 42.2162V43.8437C86.3143 43.8875 86.2924 43.9087 86.2493 43.9087Z" fill="#EDBD4E"/>
<path d="M92.387 43.9087H92.097C92.0282 43.9087 91.9745 43.8956 91.9345 43.8687C91.8957 43.8424 91.8595 43.7999 91.8245 43.7412L90.272 41.3162L90.002 40.8637H89.992V43.5062H90.407C90.452 43.5062 90.4745 43.5281 90.4745 43.5712V43.8437C90.4745 43.8874 90.452 43.9087 90.407 43.9087H89.117C89.0701 43.9087 89.047 43.8874 89.047 43.8437V43.5712C89.047 43.5281 89.0701 43.5062 89.117 43.5062H89.5245V40.4562H89.117C89.0701 40.4562 89.047 40.4349 89.047 40.3912V40.1187C89.047 40.0756 89.0701 40.0537 89.117 40.0537H89.8695C89.9726 40.0537 90.0632 40.1149 90.142 40.2362L91.672 42.6312L91.9795 43.1512H91.9895V40.4562H91.577C91.5332 40.4562 91.512 40.4349 91.512 40.3912V40.1187C91.512 40.0756 91.5332 40.0537 91.577 40.0537H92.8695C92.9126 40.0537 92.9345 40.0756 92.9345 40.1187V40.3912C92.9345 40.4349 92.9126 40.4562 92.8695 40.4562H92.457V43.8437C92.457 43.8874 92.4332 43.9087 92.387 43.9087Z" fill="#EDBD4E"/>
<path d="M96.6413 43.9087H93.7888C93.7419 43.9087 93.7188 43.8874 93.7188 43.8437V43.5712C93.7188 43.5281 93.7419 43.5062 93.7888 43.5062H94.1963V40.4562H93.7888C93.7419 40.4562 93.7188 40.4349 93.7188 40.3912V40.1187C93.7188 40.0756 93.7419 40.0537 93.7888 40.0537H96.6413C96.6876 40.0537 96.7113 40.0756 96.7113 40.1187V40.9812C96.7113 41.0281 96.6876 41.0512 96.6413 41.0512H96.3513C96.3076 41.0512 96.2863 41.0281 96.2863 40.9812V40.4562H94.6638V41.7887H96.0238C96.0701 41.7887 96.0938 41.8099 96.0938 41.8512V42.1262C96.0938 42.1699 96.0701 42.1912 96.0238 42.1912H94.6638V43.5062H96.2813V42.9787C96.2813 42.9374 96.3044 42.9162 96.3513 42.9162H96.6413C96.6876 42.9162 96.7113 42.9374 96.7113 42.9787V43.8437C96.7113 43.8874 96.6876 43.9087 96.6413 43.9087Z" fill="#EDBD4E"/>
<path d="M99.8038 43.9087H98.5513C98.5045 43.9087 98.4813 43.8856 98.4813 43.8387V43.5762C98.4813 43.5299 98.5045 43.5062 98.5513 43.5062H98.9613V40.4562H97.9463V41.0262C97.9463 41.0762 97.9201 41.1012 97.8688 41.1012H97.5688C97.5188 41.1012 97.4938 41.0762 97.4938 41.0262V40.1237C97.4938 40.0774 97.5188 40.0537 97.5688 40.0537H100.806C100.856 40.0537 100.881 40.0774 100.881 40.1237V41.0262C100.881 41.0762 100.856 41.1012 100.806 41.1012H100.501C100.454 41.1012 100.431 41.0762 100.431 41.0262V40.4562H99.4263V43.5062H99.8038C99.8538 43.5062 99.8788 43.5299 99.8788 43.5762V43.8387C99.8788 43.8856 99.8538 43.9087 99.8038 43.9087Z" fill="#EDBD4E"/>
<path d="M105.426 43.9087H105.221C105.089 43.9087 105.005 43.8374 104.969 43.6937L104.346 40.9662H104.331L103.719 43.6937C103.682 43.8374 103.596 43.9087 103.461 43.9087H103.261C103.136 43.9087 103.05 43.8374 103.004 43.6937L102.021 40.4562H101.684C101.637 40.4562 101.614 40.4349 101.614 40.3912V40.1187C101.614 40.0756 101.637 40.0537 101.684 40.0537H102.891C102.938 40.0537 102.961 40.0756 102.961 40.1187V40.3912C102.961 40.4349 102.938 40.4562 102.891 40.4562H102.514L103.346 43.3387H103.379L104.126 40.0537H104.556L105.306 43.3387H105.339L106.171 40.4562H105.791C105.748 40.4562 105.726 40.4349 105.726 40.3912V40.1187C105.726 40.0756 105.748 40.0537 105.791 40.0537H107.004C107.047 40.0537 107.069 40.0756 107.069 40.1187V40.3912C107.069 40.4349 107.047 40.4562 107.004 40.4562H106.661L105.679 43.6937C105.635 43.8374 105.551 43.9087 105.426 43.9087Z" fill="#EDBD4E"/>
<path d="M111.547 41.9637C111.547 42.5525 111.37 43.03 111.017 43.3962C110.665 43.7631 110.222 43.9462 109.687 43.9462C109.152 43.9462 108.705 43.7612 108.347 43.3912C107.988 43.02 107.809 42.5412 107.809 41.9562C107.809 41.3712 107.993 40.9031 108.362 40.5512C108.732 40.1981 109.173 40.0212 109.684 40.0212C110.196 40.0212 110.634 40.1981 110.999 40.5512C111.364 40.9031 111.547 41.3737 111.547 41.9637ZM108.724 43.1012C108.999 43.375 109.319 43.5112 109.684 43.5112C110.049 43.5112 110.368 43.375 110.639 43.1012C110.911 42.8262 111.047 42.4506 111.047 41.9737C111.047 41.4956 110.908 41.1212 110.629 40.8512C110.353 40.5812 110.037 40.4462 109.682 40.4462C109.328 40.4462 109.012 40.5812 108.732 40.8512C108.453 41.1212 108.314 41.4956 108.314 41.9737C108.314 42.4506 108.451 42.8262 108.724 43.1012Z" fill="#EDBD4E"/>
<path d="M115.596 43.9087H115.129C115 43.9087 114.892 43.8231 114.806 43.6512L114.301 42.6262C114.257 42.5362 114.212 42.4699 114.164 42.4262C114.115 42.3831 114.049 42.3599 113.964 42.3562H113.281V43.5062H113.764C113.807 43.5062 113.829 43.5281 113.829 43.5712V43.8437C113.829 43.8874 113.807 43.9087 113.764 43.9087H112.406C112.359 43.9087 112.336 43.8874 112.336 43.8437V43.5712C112.336 43.5281 112.359 43.5062 112.406 43.5062H112.814V40.4562H112.406C112.359 40.4562 112.336 40.4349 112.336 40.3912V40.1187C112.336 40.0756 112.359 40.0537 112.406 40.0537H114.061C114.442 40.0537 114.754 40.1549 114.994 40.3562C115.234 40.5581 115.354 40.8437 115.354 41.2137C115.354 41.7756 115.091 42.1262 114.566 42.2662C114.632 42.3199 114.716 42.4399 114.816 42.6262L115.269 43.5062H115.596C115.639 43.5062 115.661 43.5281 115.661 43.5712V43.8437C115.661 43.8874 115.639 43.9087 115.596 43.9087ZM113.281 41.9762H113.969C114.577 41.9762 114.881 41.7274 114.881 41.2287C114.881 40.7137 114.577 40.4562 113.969 40.4562H113.281V41.9762Z" fill="#EDBD4E"/>
<path d="M119.957 43.9087H119.489C119.36 43.9087 119.253 43.8231 119.167 43.6512L118.662 42.6262C118.633 42.5681 118.607 42.5231 118.584 42.4912C118.56 42.4599 118.51 42.4281 118.434 42.3962C118.357 42.3631 118.262 42.3462 118.147 42.3462H117.389V43.5062H117.884C117.93 43.5062 117.954 43.5281 117.954 43.5712V43.8437C117.954 43.8874 117.93 43.9087 117.884 43.9087H116.514C116.467 43.9087 116.444 43.8874 116.444 43.8437V43.5712C116.444 43.5281 116.467 43.5062 116.514 43.5062H116.922V40.4562H116.514C116.467 40.4562 116.444 40.4349 116.444 40.3912V40.1187C116.444 40.0756 116.467 40.0537 116.514 40.0537H117.717C117.76 40.0537 117.782 40.0756 117.782 40.1187V40.3912C117.782 40.4349 117.76 40.4562 117.717 40.4562H117.389V41.9637H117.954C118.332 41.9637 118.614 41.8524 118.799 41.6287C118.984 41.4056 119.077 41.0149 119.077 40.4562H118.712C118.668 40.4562 118.647 40.4349 118.647 40.3912V40.1187C118.647 40.0756 118.668 40.0537 118.712 40.0537H119.909C119.95 40.0537 119.972 40.0756 119.972 40.1187V40.3912C119.972 40.4349 119.95 40.4562 119.909 40.4562H119.537C119.537 41.3199 119.293 41.8831 118.807 42.1462C118.89 42.1862 118.954 42.2381 118.999 42.3012C119.045 42.3631 119.1 42.4549 119.162 42.5762L119.629 43.5062H119.957C120 43.5062 120.022 43.5281 120.022 43.5712V43.8437C120.022 43.8874 120 43.9087 119.957 43.9087Z" fill="#EDBD4E"/>
</svg>
